<?xml version="1.0" encoding="utf-8"?>
<!-- Generator: Adobe Illustrator 19.0.0, SVG Export Plug-In . SVG Version: 6.00 Build 0)  -->
<svg version="1.1" id="Layer_1" xmlns="http://www.w3.org/2000/svg" xmlns:xlink="http://www.w3.org/1999/xlink" x="0px" y="0px"
	 viewBox="0 0 432 5091.3" style="enable-background:new 0 0 432 5091.3;" xml:space="preserve">
<style type="text/css">
	.st0{fill:none;stroke:#FFF2F7;stroke-width:2;stroke-miterlimit:10;}
	.st1{fill:none;stroke:#FFEEEF;stroke-miterlimit:10;}
</style>
<g id="XMLID_14_">
	<path id="XMLID_91_" class="st0" d="M-98.3-53.4c0,0,108.3,789.7,108.3,1302.1s-358.7,850-358.7,1133.3s322.6,514.5,322.6,707.4
		c0,208.7-152.6,263.1-152.6,456c0,154.5,178.7,296.5,178.7,502.9c0,114.5-230.1,166.3-230.1,290.1c0,123.8,109.1,192.9,109.1,399.3
		c0,206.4-206.4,359.7-203.4,483.5"/>
	<path id="XMLID_90_" class="st0" d="M-73.8-53.1c0,0,101.5,782.6,98.3,1295.6C22.3,1751-329.4,2089.4-329.4,2372
		c0,281.1,317.5,515.6,319.1,710.5c0.8,119.4-47.2,189.2-88.9,262c-31.4,55.7-59.8,113-60.9,195c-1.5,79,42.7,154.5,87.3,238.2
		c42.5,79.3,85.3,164.9,86.5,265.1c0.8,46.4-35,82.7-78.5,117.3c-64.5,51.8-147.2,99.2-148.2,174.2c-0.8,63.3,27.3,112.9,54.7,174.5
		c25.8,58.1,51.2,126.3,51.8,225.9c1.4,206.5-197.3,360.6-194.5,485.1"/>
	<path id="XMLID_89_" class="st0" d="M-49.4-52.9c0,0,93.8,775.6,88.3,1289.1c-5.4,504.7-349.1,843.9-349.1,1125.6
		c0,278.9,312.3,516.7,315.6,713.5c1.6,119.6-44.7,190.4-85.4,262.9c-30.7,56.6-59.4,113.9-61.6,195.2
		c-2.9,78.7,38.4,153.9,81.8,238.2c41.4,79.7,84.7,165.7,87,265.5c1.5,46.6-32.9,83.1-75.2,118.1c-63.1,52.1-146.2,98.9-148.2,174.9
		c-1.6,62.9,25.8,112.8,52.5,175c25.1,58.8,50.3,127.3,51.4,226.5c2.8,206.5-188.3,361.5-185.5,486.7"/>
	<path id="XMLID_88_" class="st0" d="M-24.9-52.7c0,0,86.5,768.5,78.3,1282.6c-8,500.8-344.3,840.8-344.3,1121.7
		c0,276.7,307.2,517.7,312.2,716.6c2.3,119.9-42.1,191.6-81.9,263.9c-30,57.4-59,114.8-62.3,195.3c-4.4,78.5,34.2,153.3,76.2,238.2
		c40.3,80,84,166.4,87.5,265.9c2.3,46.9-30.6,83.7-71.8,118.8c-61.5,52.5-145.2,98.5-148.1,175.6c-2.3,62.4,24.2,112.6,50.2,175.6
		c24.5,59.5,49.2,128.4,51,227c3.8,206.6-179.3,362.4-176.5,488.2"/>
	<path id="XMLID_87_" class="st0" d="M-0.4-52.4c0,0,79.3,761.4,68.4,1276.1c-10.6,497-339.5,837.7-339.5,1117.9
		c0,274.5,302,518.8,308.7,719.6c3.1,120.1-39.6,192.8-78.4,264.8c-29.3,58.3-58.6,115.6-63,195.4c-5.8,78.3,29.9,152.6,70.7,238.2
		c39.3,80.4,83.4,167.1,88,266.3c3,47.1-28.4,84.3-68.4,119.6c-60,52.9-144.2,98.2-148.1,176.3c-3.1,62,22.6,112.5,47.9,176.1
		c23.9,60.2,48.3,129.5,50.7,227.6c5.1,206.7-170.2,363.3-167.6,489.8"/>
	<path id="XMLID_86_" class="st0" d="M24-52.2c0,0,72.1,754.3,58.4,1269.5c-13.2,493.1-334.7,834.7-334.7,1114
		c0,272.3,296.8,519.9,305.2,722.7c3.9,120.3-37,194-74.9,265.7c-28.6,59.1-58.2,116.5-63.7,195.6c-7.3,78,25.6,152,65.2,238.3
		c38.2,80.8,82.8,167.9,88.5,266.7c3.8,47.4-26.2,84.8-65,120.3c-58.5,53.3-143.2,97.8-148.1,177c-3.8,61.5,21,112.4,45.7,176.6
		c23.2,60.8,47.3,130.5,50.3,228.2c6.4,206.8-161.2,364.2-158.6,491.4"/>
	<path id="XMLID_85_" class="st0" d="M48.5-51.9c0,0,65,747.2,48.4,1263C81.2,1700.3-233,2042.7-233,2321.2
		c0,270.1,291.7,520.9,301.7,725.7c4.7,120.6-34.5,195.2-71.3,266.6c-28,60-57.8,117.4-64.4,195.7c-8.7,77.8,21.3,151.4,59.7,238.3
		c37.1,81.2,82.1,168.6,89,267.2c4.5,47.6-23.9,85.4-61.7,121.1c-56.9,53.8-142.1,97.4-148,177.7c-4.5,61.1,19.5,112.3,43.4,177.2
		c22.6,61.5,46.4,131.6,50,228.7c7.7,206.8-152.2,365.1-149.7,493"/>
	<path id="XMLID_84_" class="st0" d="M73-51.7c0,0,57.8,740.1,38.4,1256.5c-18.2,485.3-325.1,828.5-325.1,1106.3
		c0,267.9,286.5,522,298.2,728.8c5.5,120.8-31.9,196.4-67.8,267.5c-27.3,60.8-57.4,118.2-65.1,195.8
		c-10.2,77.6,17.1,150.7,54.2,238.3c36.1,81.6,81.5,169.4,89.5,267.6c5.3,47.9-21.7,86-58.3,121.8c-55.4,54.2-141,97.1-148,178.4
		c-5.2,60.6,17.9,112.2,41.1,177.7c21.9,62.2,45.4,132.7,49.6,229.3c9.1,206.9-143.1,366-140.7,494.5"/>
	<path id="XMLID_83_" class="st0" d="M97.4-51.5c0,0,50.7,733,28.4,1250C105.1,1680-194.4,2024-194.4,2300.9
		c0,265.7,281.4,523.1,294.7,731.8c6.2,121-29.4,197.6-64.3,268.4c-26.6,61.7-57,119.1-65.8,196c-11.7,77.3,12.8,150.1,48.7,238.3
		c35,81.9,80.8,170.1,90.1,268c6,48.2-19.4,86.6-54.9,122.6C0.1,4180.6-85.9,4222.6-94,4305.1c-5.8,60.2,16.3,112,38.9,178.3
		c21.3,62.9,44.5,133.7,49.3,229.9c10.4,207-134.1,366.9-131.7,496.1"/>
	<path id="XMLID_82_" class="st0" d="M121.9-51.2c0,0,43.6,725.8,18.5,1243.5c-23.2,477.5-315.5,822.4-315.5,1098.5
		c0,263.5,276.2,524.1,291.2,734.9c7,121.2-26.9,198.8-60.8,269.3c-25.9,62.5-56.6,120-66.5,196.1c-13.1,77.1,8.5,149.4,43.2,238.3
		c34,82.3,80.2,170.9,90.6,268.4c6.8,48.4-17.2,87.2-51.5,123.3c-52.3,55.1-138.8,96.3-147.9,179.9c-6.5,59.7,14.7,111.9,36.6,178.8
		c20.6,63.6,43.5,134.8,48.9,230.4c11.7,207.1-125.1,367.8-122.8,497.7"/>
	<path id="XMLID_81_" class="st0" d="M146.3-51c0,0,36.5,718.7,8.5,1236.9c-25.6,473.7-310.7,819.3-310.7,1094.7
		c0,261.3,271.1,525.2,287.7,737.9c7.8,121.5-24.3,200-57.3,270.2c-25.2,63.4-56.2,120.8-67.2,196.2
		c-14.6,76.9,4.2,148.8,37.7,238.3c32.9,82.7,79.6,171.6,91.1,268.8c7.5,48.7-15,87.8-48.2,124c-50.8,55.5-137.7,95.9-147.9,180.6
		c-7.1,59.2,13.1,111.8,34.4,179.3c20,64.3,42.6,135.8,48.6,231c13,207.2-116,368.7-113.8,499.3"/>
	<path id="XMLID_80_" class="st0" d="M170.8-50.8c0,0,29.5,711.6-1.5,1230.4c-28.1,469.8-305.9,816.3-305.9,1090.8
		c0,259.1,265.9,526.3,284.2,741c8.6,121.7-21.8,201.2-53.7,271.2c-24.5,64.2-55.9,121.7-68,196.3c-16,76.6,0,148.2,32.2,238.3
		c31.8,83.1,78.9,172.4,91.6,269.2c8.3,48.9-12.7,88.4-44.8,124.8c-49.3,56-136.6,95.5-147.8,181.3c-7.7,58.8,11.6,111.7,32.1,179.9
		c19.3,65,41.7,136.9,48.2,231.6c14.4,207.2-107,369.6-104.8,500.8"/>
	<path id="XMLID_79_" class="st0" d="M195.3-50.5c0,0,22.5,704.5-11.5,1223.9c-30.4,465.9-301.1,813.2-301.1,1086.9
		c0,256.9,260.8,527.3,280.7,744c9.4,121.9-19.2,202.4-50.2,272.1c-23.8,65.1-55.5,122.6-68.7,196.5
		c-17.5,76.4-4.3,147.5,26.7,238.4c30.8,83.5,78.3,173.1,92.1,269.6c9,49.2-10.5,88.9-41.4,125.5c-47.7,56.5-135.4,95.2-147.8,182
		c-8.3,58.3,10,111.6,29.8,180.4c18.7,65.6,40.7,138,47.9,232.1c15.7,207.3-98,370.5-95.9,502.4"/>
	<path id="XMLID_78_" class="st0" d="M219.7-50.3c0,0,15.5,697.4-21.4,1217.4C165.5,1629.1-98,1977.2-98,2250.2
		c0,254.7,255.6,528.4,277.3,747.1c10.2,122.2-16.7,203.6-46.7,273c-23.2,65.9-55.1,123.4-69.4,196.6
		c-18.9,76.1-8.6,146.9,21.2,238.4c29.7,83.8,77.6,173.8,92.6,270c9.8,49.4-8.2,89.6-38,126.3c-46.2,56.9-134.3,94.8-147.8,182.7
		c-8.9,57.9,8.4,111.4,27.6,180.9c18.1,66.3,39.8,139,47.5,232.7c17.1,207.4-88.9,371.4-86.9,504"/>
	<path id="XMLID_77_" class="st0" d="M244.2-50c0,0,8.5,690.2-31.4,1210.9C177.6,1618.9-78.7,1967.9-78.7,2240
		c0,252.5,250.4,529.5,273.8,750.2c10.9,122.4-14.1,204.8-43.2,273.9c-22.5,66.7-54.7,124.3-70.1,196.7
		c-20.4,75.9-12.9,146.3,15.6,238.4c28.7,84.2,77,174.6,93.1,270.4c10.6,49.7-6,90.2-34.7,127C111.3,4154,22.8,4191,8.2,4280
		c-9.5,57.4,6.8,111.3,25.3,181.5c17.4,67,38.9,140.1,47.2,233.3c18.4,207.5-79.9,372.3-78,505.6"/>
	<path id="XMLID_76_" class="st0" d="M268.6-49.8c0,0,1.5,683.1-41.4,1204.3c-37.4,454.2-286.7,804-286.7,1075.3
		c0,250.3,245.3,530.5,270.3,753.2c11.7,122.6-11.6,206-39.6,274.8c-21.8,67.6-54.3,125.2-70.8,196.9
		c-21.9,75.7-17.1,145.6,10.1,238.4c27.6,84.6,76.4,175.3,93.7,270.8c11.3,50-3.7,90.8-31.3,127.8c-43.1,57.9-131.9,94-147.7,184.1
		c-10,56.9,5.2,111.2,23,182c16.8,67.7,38,141.2,46.8,233.8c19.8,207.6-70.9,373.2-69,507.1"/>
	<path id="XMLID_75_" class="st0" d="M293.1-49.6c0,0-5.4,676-51.4,1197.8C202,1598.6-40.1,1949.2-40.1,2219.7
		c0,248,240.1,531.6,266.8,756.3c12.5,122.8-9,207.2-36.1,275.7c-21.1,68.4-53.9,126-71.5,197c-23.3,75.4-21.4,145,4.6,238.4
		c26.5,85,75.7,176.1,94.2,271.2c12.1,50.2-1.5,91.4-27.9,128.5c-41.6,58.4-130.6,93.6-147.7,184.8c-10.5,56.5,3.7,111.1,20.8,182.5
		c16.1,68.4,37.1,142.2,46.5,234.4c21.2,207.7-61.8,374.1-60,508.7"/>
	<path id="XMLID_74_" class="st0" d="M317.6-49.3c0,0-12.3,668.9-61.4,1191.3c-42,446.4-277.1,797.9-277.1,1067.6
		c0,245.8,235,532.7,263.3,759.3c13.3,123.1-6.5,208.4-32.6,276.6c-20.4,69.3-53.5,126.9-72.2,197.1
		c-24.8,75.2-25.7,144.4-0.9,238.4c25.5,85.4,75.1,176.8,94.7,271.6c12.8,50.5,0.8,92-24.5,129.3c-40,58.9-129.4,93.2-147.6,185.5
		c-11.1,56,2.1,111,18.5,183.1c15.5,69.1,36.2,143.3,46.1,234.9c22.6,207.8-52.8,375-51.1,510.3"/>
	<path id="XMLID_73_" class="st0" d="M342-49.1c0,0-19.1,661.7-71.3,1184.8C226.5,1578.2-1.6,1930.5-1.6,2199.4
		c0,243.6,229.8,533.7,259.8,762.4c14.1,123.3-3.9,209.6-29.1,277.5c-19.7,70.1-53.1,127.8-72.9,197.3c-26.2,75-30,143.7-6.4,238.4
		c24.4,85.7,74.4,177.6,95.2,272c13.6,50.7,3,92.6-21.2,130c-38.5,59.4-128.1,92.9-147.6,186.3c-11.6,55.6,0.5,110.8,16.3,183.6
		c14.8,69.8,35.3,144.4,45.8,235.5c24,207.8-43.8,375.9-42.1,511.8"/>
	<path id="XMLID_72_" class="st0" d="M366.5-48.8c0,0-26,654.6-81.3,1178.3c-46.4,438.6-267.5,791.7-267.5,1059.9
		c0,241.4,224.7,534.8,256.3,765.4c14.8,123.5-1.4,210.8-25.6,278.5c-19,71-52.7,128.7-73.6,197.4c-27.7,74.7-34.2,143.1-11.9,238.5
		c23.3,86.1,73.8,178.3,95.7,272.4c14.3,51,5.3,93.3-17.8,130.7c-36.9,59.9-126.9,92.5-147.6,187c-12.1,55.1-1.1,110.7,14,184.1
		c14.2,70.4,34.4,145.4,45.4,236.1c25.4,207.9-34.7,376.8-33.1,513.4"/>
	<path id="XMLID_71_" class="st0" d="M390.9-48.6c0,0-32.8,647.5-91.3,1171.8C251.1,1557.9,37,1911.8,37,2179.1
		c0,239.2,219.5,535.9,252.8,768.5c15.6,123.8,1.1,212-22,279.4c-18.4,71.8-52.3,129.5-74.3,197.5c-29.1,74.5-38.5,142.5-17.4,238.5
		c22.3,86.5,73.2,179,96.2,272.8c15.1,51.2,7.5,93.9-14.4,131.5c-35.3,60.5-125.6,92.1-147.5,187.7c-12.6,54.6-2.6,110.6,11.7,184.7
		c13.5,71.1,33.5,146.5,45.1,236.6c26.8,208-25.7,377.7-24.2,515"/>
	<path id="XMLID_70_" class="st0" d="M415.4-48.4c0,0-39.5,640.4-101.3,1165.2C263.4,1547.7,56.3,1902.4,56.3,2169
		c0,237,214.3,536.9,249.3,771.5c16.4,124,3.7,213.2-18.5,280.3c-17.7,72.7-51.9,130.4-75,197.6c-30.6,74.2-42.8,141.8-22.9,238.5
		c21.2,86.9,72.5,179.8,96.7,273.2c15.8,51.5,9.8,94.5-11,132.2c-33.7,61-124.3,91.7-147.5,188.4c-13,54.2-4.2,110.5,9.5,185.2
		c12.9,71.8,32.6,147.6,44.7,237.2c28.2,208.1-16.7,378.6-15.2,516.6"/>
	<path id="XMLID_69_" class="st0" d="M439.9-48.1c0,0-46.3,633.3-111.3,1158.7c-52.8,427-253,782.5-253,1048.3
		c0,234.8,209.2,538,245.8,774.6c17.2,124.2,6.2,214.4-15,281.2c-17,73.5-51.5,131.3-75.7,197.8c-32.1,74-47,141.2-28.4,238.5
		c20.2,87.3,71.9,180.5,97.3,273.6c16.6,51.8,12.1,95.2-7.7,133c-32.2,61.5-122.9,91.4-147.5,189.1c-13.5,53.8-5.8,110.4,7.2,185.8
		c12.2,72.5,31.7,148.6,44.4,237.8c29.6,208.2-7.6,379.5-6.3,518.1"/>
	<path id="XMLID_68_" class="st0" d="M464.3-47.9c0,0-53,626.1-121.2,1152.2c-54.9,423.1-248.2,779.4-248.2,1044.4
		c0,232.6,204,539.1,242.4,777.6c18,124.4,8.8,215.6-11.5,282.1c-16.3,74.4-51.1,132.1-76.5,197.9c-33.5,73.8-51.3,140.6-33.9,238.5
		c19.1,87.6,71.3,181.3,97.8,274c17.3,52,14.4,95.8-4.3,133.7c-30.6,62.1-121.6,91-147.4,189.8c-14,53.3-7.4,110.2,4.9,186.3
		c11.6,73.2,30.8,149.7,44,238.3c31.1,208.3,1.4,380.4,2.7,519.7"/>
	<path id="XMLID_67_" class="st0" d="M488.8-47.7c0,0-59.7,619-131.2,1145.7c-56.9,419.2-243.4,776.4-243.4,1040.5
		c0,230.4,198.9,540.1,238.9,780.7c18.7,124.7,11.3,216.8-8,283c-15.6,75.2-50.8,133-77.2,198c-35,73.5-55.6,139.9-39.4,238.5
		c18,88,70.6,182,98.3,274.4c18.1,52.3,16.7,96.5-0.9,134.5c-29,62.6-120.2,90.7-147.4,190.5c-14.4,52.9-9,110.1,2.7,186.8
		c11,73.9,29.9,150.7,43.7,238.9c32.5,208.3,10.4,381.3,11.7,521.3"/>
	<path id="XMLID_66_" class="st0" d="M513.2-47.4c0,0-66.3,611.9-141.2,1139.2c-59,415.3-238.6,773.3-238.6,1036.7
		c0,228.2,193.7,541.2,235.4,783.7c19.5,124.9,13.9,218-4.4,283.9c-14.9,76.1-50.4,133.9-77.9,198.2c-36.4,73.3-59.9,139.3-45,238.6
		c17,88.4,70,182.8,98.8,274.8c18.9,52.5,19,97.1,2.5,135.2c-27.3,63.1-118.8,90.3-147.4,191.2c-14.9,52.4-10.5,110,0.4,187.4
		c10.3,74.6,29,151.8,43.3,239.5c34,208.4,19.5,382.2,20.6,522.9"/>
	<path id="XMLID_65_" class="st0" d="M537.7-47.2c0,0-72.9,604.8-151.2,1132.6c-61,411.5-233.8,770.2-233.8,1032.8
		c0,226,188.6,542.2,231.9,786.8c20.3,125.1,16.4,219.2-0.9,284.8c-14.2,76.9-50,134.7-78.6,198.3c-37.9,73.1-64.1,138.6-50.5,238.6
		c15.9,88.8,69.3,183.5,99.3,275.2c19.6,52.8,21.3,97.8,5.9,135.9c-25.7,63.7-117.4,90-147.3,191.9c-15.3,52-12.1,109.9-1.8,187.9
		c9.7,75.2,28.2,152.9,43,240c35.4,208.5,28.5,383.1,29.6,524.4"/>
	<path id="XMLID_63_" class="st0" d="M562.2-46.9c0,0-79.5,597.8-161.2,1126.1c-63,407.6-229,767.2-229,1028.9
		c0,223.8,183.4,543.3,228.4,789.8c21.1,125.4,19,220.4,2.6,285.8c-13.6,77.8-49.6,135.6-79.3,198.4c-39.4,72.8-68.4,138-56,238.6
		c14.9,89.2,68.7,184.2,99.8,275.6c20.4,53,23.6,98.4,9.2,136.7c-24.1,64.2-115.9,89.7-147.3,192.6c-15.7,51.6-13.7,109.8-4.1,188.4
		c9,75.9,27.3,153.9,42.6,240.6c36.9,208.6,37.5,384,38.6,526"/>
	<path id="XMLID_62_" class="st0" d="M586.6-46.7c0,0-86,590.7-171.1,1119.6c-64.9,403.8-224.2,764.1-224.2,1025.1
		c0,221.6,178.3,544.4,224.9,792.9c21.9,125.6,21.5,221.6,6.1,286.7c-12.9,78.6-49.2,136.5-80,198.5
		c-40.8,72.6-72.7,137.4-61.5,238.6c13.8,89.6,68.1,185,100.3,276c21.1,53.3,25.9,99.1,12.6,137.4
		c-22.4,64.8-114.5,89.4-147.3,193.3c-16.1,51.2-15.3,109.6-6.4,189c8.4,76.6,26.4,155,42.3,241.2c38.4,208.6,46.6,384.9,47.5,527.6
		"/>
	<path id="XMLID_61_" class="st0" d="M611.1-46.5c0,0-92.6,583.6-181.1,1113.1c-66.9,399.9-219.4,761-219.4,1021.2
		c0,219.4,173.1,545.4,221.4,795.9c22.6,125.8,24.1,222.7,9.6,287.6c-12.2,79.4-48.8,137.3-80.7,198.7c-42.3,72.4-77,136.7-67,238.6
		c12.7,89.9,67.4,185.7,100.9,276.4c21.9,53.6,28.2,99.8,16,138.2c-20.8,65.3-113,89.1-147.2,194.1c-16.5,50.7-16.8,109.5-8.6,189.5
		c7.7,77.3,25.5,156,41.9,241.7c39.8,208.7,55.6,385.8,56.5,529.2"/>
	<path id="XMLID_60_" class="st0" d="M635.6-46.2c0,0-99,576.5-191.1,1106.6c-68.8,396.1-214.6,758-214.6,1017.3
		c0,217.2,167.9,546.5,217.9,799c23.4,126,26.6,223.9,13.2,288.5c-11.5,80.3-48.4,138.2-81.4,198.8
		c-43.7,72.1-81.2,136.1-72.5,238.6c11.7,90.3,66.8,186.5,101.4,276.8c22.6,53.8,30.5,100.4,19.4,138.9
		c-19.1,65.9-111.5,88.8-147.2,194.8c-17,50.3-18.4,109.4-10.9,190c7.1,78,24.7,157.1,41.6,242.3c41.3,208.8,64.7,386.7,65.4,530.7"
		/>
	<path id="XMLID_59_" class="st0" d="M660-46c0,0-105.4,569.5-201.1,1100c-70.7,392.2-209.8,754.9-209.8,1013.4
		c0,215,162.8,547.6,214.4,802c24.2,126.3,29.1,225.1,16.7,289.4c-10.8,81.1-48,139.1-82.1,198.9c-45.2,71.9-85.5,135.5-78,238.6
		c10.6,90.7,66.1,187.2,101.9,277.2c23.4,54.1,32.9,101.1,22.7,139.7c-17.4,66.5-110,88.5-147.2,195.5
		c-17.4,49.9-20,109.3-13.2,190.6c6.4,78.7,23.8,158.1,41.2,242.9c42.8,208.8,73.7,387.6,74.4,532.3"/>
	<path id="XMLID_58_" class="st0" d="M684.5-45.8c0,0-111.8,562.4-211,1093.5c-72.6,388.4-205,751.8-205,1009.6
		c0,212.8,157.6,548.6,210.9,805.1c25,126.5,31.7,226.3,20.2,290.3c-10.1,82-47.6,139.9-82.8,199.1
		c-46.6,71.6-89.8,134.8-83.5,238.7c9.6,91.1,65.5,188,102.4,277.6c24.1,54.3,35.2,101.7,26.1,140.4
		c-15.7,67-108.4,88.2-147.1,196.2c-17.7,49.5-21.6,109.2-15.4,191.1c5.8,79.4,23,159.2,40.9,243.4
		c44.4,208.9,82.7,388.5,83.4,533.9"/>
	<path id="XMLID_57_" class="st0" d="M708.9-45.5c0,0-118.2,555.4-221,1087c-74.4,384.6-200.2,748.8-200.2,1005.7
		c0,210.6,152.5,549.7,207.5,808.1c25.8,126.7,34.2,227.5,23.7,291.2c-9.4,82.8-47.2,140.8-83.5,199.2
		c-48.1,71.4-94.1,134.2-89,238.7c8.5,91.5,64.9,188.7,102.9,278c24.9,54.6,37.5,102.4,29.5,141.2c-14,67.6-106.9,88-147.1,196.9
		c-18.1,49.1-23.2,109-17.7,191.7c5.2,80,22.1,160.3,40.5,244c45.9,209,91.8,389.4,92.3,535.5"/>
	<path id="XMLID_56_" class="st0" d="M733.4-45.3c0,0-124.5,548.4-231,1080.5C426.2,1416,307,1780.9,307,2037.1
		c0,208.4,147.3,550.8,204,811.2c26.5,127,36.8,228.7,27.2,292.1c-8.8,83.7-46.8,141.7-84.2,199.3c-49.6,71.2-98.3,133.6-94.5,238.7
		c7.4,91.8,64.2,189.5,103.4,278.4c25.6,54.8,39.9,103,32.9,141.9c-12.3,68.1-105.3,87.7-147.1,197.6
		c-18.5,48.7-24.7,108.9-19.9,192.2c4.5,80.7,21.3,161.3,40.1,244.6c47.4,209,100.8,390.3,101.3,537"/>
	<path id="XMLID_55_" class="st0" d="M757.9-45c0,0-130.8,541.4-241,1074c-78,377-190.6,742.6-190.6,998
		c0,206.1,142.2,551.8,200.5,814.2c27.3,127.2,39.3,229.9,30.8,293.1c-8.1,84.5-46.4,142.5-85,199.5c-51,70.9-102.6,132.9-100,238.7
		c6.4,92.2,63.6,190.2,103.9,278.8c26.4,55.1,42.2,103.7,36.2,142.6c-10.6,68.7-103.7,87.5-147,198.3
		c-18.9,48.3-26.3,108.8-22.2,192.7c3.9,81.4,20.4,162.4,39.8,245.1c48.9,209.1,109.8,391.2,110.3,538.6"/>
	<path id="XMLID_54_" class="st0" d="M782.3-44.8c0,0-137,534.4-251,1067.4c-79.8,373.2-185.8,739.6-185.8,994.1
		c0,203.9,137,552.9,197,817.3c28.1,127.4,41.9,231.1,34.3,294c-7.4,85.4-46,143.4-85.7,199.6c-52.5,70.7-106.9,132.3-105.6,238.7
		c5.3,92.6,63,190.9,104.5,279.2c27.1,55.4,44.6,104.3,39.6,143.4c-8.8,69.2-102.1,87.2-147,199c-19.3,47.9-27.9,108.7-24.5,193.3
		c3.2,82.1,19.6,163.4,39.4,245.7c50.5,209.1,118.9,392.1,119.2,540.2"/>
	<path id="XMLID_53_" class="st0" d="M806.8-44.6c0,0-143.2,527.4-260.9,1060.9c-81.5,369.4-181,736.5-181,990.2
		c0,201.7,131.9,554,193.5,820.3c28.9,127.6,44.4,232.3,37.8,294.9c-6.7,86.2-45.7,144.3-86.4,199.7
		c-53.9,70.5-111.2,131.7-111.1,238.7c4.2,93,62.3,191.7,105,279.6c27.9,55.6,47,104.9,43,144.1c-7.1,69.7-100.4,87-147,199.7
		c-19.6,47.5-29.5,108.6-26.7,193.8c2.6,82.8,18.7,164.5,39.1,246.3c52.1,209.1,127.9,393,128.2,541.7"/>
	<path id="XMLID_52_" class="st0" d="M831.2-44.3c0,0-149.3,520.5-270.9,1054.4c-83.3,365.6-176.2,733.4-176.2,986.4
		c0,199.5,126.7,555,190,823.4c29.7,127.9,47,233.5,41.3,295.8c-6,87.1-45.3,145.1-87.1,199.8c-55.4,70.2-115.4,131-116.6,238.7
		c3.2,93.4,61.7,192.4,105.5,280c28.7,55.9,49.3,105.6,46.4,144.9c-5.3,70.3-98.8,86.9-146.9,200.4c-20,47.2-31.1,108.4-29,194.3
		c1.9,83.5,17.9,165.5,38.7,246.8c53.6,209.2,136.9,393.9,137.1,543.3"/>
	<path id="XMLID_51_" class="st0" d="M855.7-44.1c0,0-155.4,513.5-280.9,1047.9c-85,361.8-171.4,730.4-171.4,982.5
		c0,197.3,121.5,556.1,186.5,826.4c30.5,128.1,49.5,234.7,44.8,296.7c-5.3,87.9-44.9,146-87.8,200c-56.8,70-119.7,130.4-122.1,238.8
		c2.1,93.7,61,193.2,106,280.4c29.4,56.1,51.7,106.2,49.7,145.6c-3.6,70.8-97.1,86.7-146.9,201.1c-20.4,46.8-32.6,108.3-31.3,194.9
		c1.3,84.2,17.2,166.5,38.4,247.4c55.5,209.1,146,394.7,146.1,544.9"/>
	<path id="XMLID_50_" class="st0" d="M880.2-43.9c0,0-160.7,506.8-290.9,1041.4c-86.2,358.2-166.6,727.3-166.6,978.6
		c0,195.1,116.4,557.2,183,829.5c31.2,128.3,52.1,235.9,48.4,297.6c-4.6,88.8-44.5,146.9-88.5,200.1
		c-58.3,69.7-124,129.7-127.6,238.8c1.1,94.1,60.4,193.9,106.5,280.8c30.2,56.4,54.1,106.8,53.1,146.4
		c-1.8,71.3-95.4,86.5-146.9,201.9c-20.7,46.4-34.2,108.2-33.5,195.4c0.6,84.8,16.3,167.6,38,248c57,209.2,155,395.6,155.1,546.5"/>
	<path id="XMLID_49_" class="st0" d="M904.6-43.6c0,0-462.6,1380.7-462.6,2009.6c0,283.3,239.9,938.6,231.4,1131.1
		c-9.2,208.3-213.8,246.5-222.3,439c0,156.3,163.5,328.1,163.5,428.4c0,100.2-182.6,88.9-182.6,398.5s201.7,587.2,201.7,796.6"/>
</g>
<path id="XMLID_64_" class="st1" d="M-136.8-551.7"/>
</svg>
