<?xml version="1.0" encoding="utf-8"?>
<!-- Generator: Adobe Illustrator 19.0.0, SVG Export Plug-In . SVG Version: 6.00 Build 0)  -->
<svg version="1.1" id="Layer_1" xmlns="http://www.w3.org/2000/svg" xmlns:xlink="http://www.w3.org/1999/xlink" x="0px" y="0px"
	 viewBox="0 0 432 7803.9" style="enable-background:new 0 0 432 7803.9;" xml:space="preserve">
<style type="text/css">
	.st0{fill:none;stroke:#FFEEEF;stroke-miterlimit:10;}
	.st1{fill:none;stroke:#FFFFFF;stroke-width:3;stroke-linecap:round;stroke-miterlimit:10;}
</style>
<path id="XMLID_64_" class="st0" d="M-136.8-551.7"/>
<g id="XMLID_1_">
	<path id="XMLID_88_" class="st1" d="M-98.3-53.4c0,0,108.3,1313.9,108.3,2166.4s-358.7,1414.2-358.7,1885.6
		s282.6,806.1,282.6,1127.1c0,347.3-282.6,487.7-282.6,808.6c0,300.2,262.6,281.2,262.6,599.3c0,285.5-262.6,231.6-262.6,437.9
		c0,178.6,247.4,135.6,247.4,324.7c0,129-247.4,137.5-247.4,300.9c0,116.1,239.7,73.1,239.7,193.4"/>
	<path id="XMLID_87_" class="st1" d="M-65-52.8c0,0,99.2,1299.2,94.9,2153.4C27.2,2944.2-322.2,3507-322.2,3976.3
		c0,466.6,276.4,809.5,278.2,1134.4c0.8,162.3-57.8,280.3-120.4,391c-73.5,130.1-155.1,251.2-157.8,422.7
		c-1.7,128.5,44.3,199.6,98.1,265c70.9,87.5,157,158.9,159.5,337.7c1.1,85.5-21.5,141.2-54,183.9c-74.8,97.5-202.6,115.3-205,256.9
		c-1,48.6,16.5,81.1,42.8,107.2c69.2,68.7,200.9,83.1,202.5,219.4c0.3,21-6,39.1-16.8,55.3c-54.9,82.6-230.2,110.3-230.2,247.8
		c0,116.1,239.7,73.1,239.7,193.4"/>
	<path id="XMLID_86_" class="st1" d="M-31.6-52.3c0,0,90.2,1284.4,81.5,2140.4C44.3,2922.8-295.8,3486.7-295.8,3954
		c0,461.9,270.2,812.9,273.9,1141.7c1.7,163.6-54.8,283.3-114.9,394c-71.7,132.2-153.5,254.2-158.8,424.9
		c-3.4,127.4,39.6,199.4,91.6,266.8c68.5,91.5,156,162.3,161,339.2c2.2,84.4-18.8,140.5-50.3,185
		c-72.3,101.1-200.3,119.3-205.3,258.8c-1.9,47.9,14.3,80.6,39.7,107.8c66.9,71.6,200.3,85.1,203.6,220.7c0.5,21-5.4,39.1-15.8,55.7
		c-53,84.1-230.8,111.2-230.8,249.5c0,116.1,239.7,73.1,239.7,193.4"/>
	<path id="XMLID_85_" class="st1" d="M1.7-51.8c0,0,78.9,1269.7,68.1,2127.3c-10.4,825.8-339.1,1390.9-339.1,1856.1
		c0,457.1,264,816.2,269.5,1149c2.5,165-51.9,286.2-109.3,396.9c-69.8,134.3-151.8,257.1-159.8,427.1
		c-5.1,126.3,34.9,199.3,85.2,268.7c66.1,95.5,155,165.8,162.5,340.7c3.3,83.3-16.1,139.7-46.5,186.1
		c-69.8,104.7-198.1,123.3-205.5,260.6c-2.9,47.3,12.1,80.2,36.6,108.4c64.6,74.4,199.7,87.1,204.6,222c0.8,20.9-4.7,39.2-14.8,56.1
		c-51.2,85.7-231.4,112.1-231.4,251.3c0,116.1,239.7,73.1,239.7,193.4"/>
	<path id="XMLID_84_" class="st1" d="M35-51.3c0,0,69.2,1254.9,54.7,2114.3C75.9,2880-242.8,3446.2-242.8,3909.3
		c0,452.3,257.8,819.6,265.1,1156.3c3.3,166.3-48.9,289.2-103.8,399.8c-67.9,136.5-150.1,260-160.8,429.3
		c-6.8,125.2,30.3,199.2,78.7,270.6c63.8,99.6,153.9,169.2,163.9,342.2c4.4,82.3-13.4,139-42.7,187.2
		c-67.3,108.3-195.9,127.3-205.7,262.5c-3.8,46.7,9.8,79.7,33.5,109c62.3,77.2,199.1,89.1,205.7,223.2c1.1,20.8-4.1,39.2-13.8,56.4
		c-49.4,87.2-232,113-232,253.1c0,116.1,239.7,73.1,239.7,193.4"/>
	<path id="XMLID_83_" class="st1" d="M68.3-50.8c0,0,59.5,1240.1,41.3,2101.3c-17.1,808-326,1375.4-326,1836.5
		c0,447.5,251.6,822.9,260.7,1163.6c4.2,167.7-45.8,292.2-98.3,402.7c-65.9,138.7-148.5,262.9-161.7,431.5
		c-8.5,124.1,25.6,199.1,72.3,272.4c61.4,103.6,152.9,172.7,165.4,343.7c5.5,81.2-10.7,138.3-38.9,188.3
		c-64.8,111.9-193.7,131.3-206,264.3c-4.8,46.1,7.6,79.3,30.4,109.6c60,80.1,198.5,91.1,206.8,224.5c1.3,20.7-3.4,39.3-12.8,56.8
		c-47.3,88.9-232.5,113.9-232.5,254.8c0,116.1,239.7,73.1,239.7,193.4"/>
	<path id="XMLID_82_" class="st1" d="M101.6-50.2c0,0,49.9,1225.4,27.9,2088.3c-20.3,799.1-319.4,1367.6-319.4,1826.6
		c0,442.8,245.4,826.3,256.3,1170.9c5,169-42.7,295.2-92.8,405.6c-63.9,140.9-146.8,265.8-162.7,433.7c-10.2,123,21,199,65.8,274.3
		c59.1,107.6,151.9,176.2,166.8,345.2c6.6,80.1-8,137.5-35.2,189.4C-54,6799.2-183.1,6819-197.9,6949.9
		c-5.8,45.5,5.4,78.8,27.3,110.2c57.7,82.9,197.9,93.1,207.8,225.8c1.6,20.6-2.8,39.3-11.8,57.2c-45.5,90.4-233.1,114.9-233.1,256.6
		c0,116.1,239.7,73.1,239.7,193.4"/>
	<path id="XMLID_81_" class="st1" d="M135-49.7c0,0,40.3,1210.6,14.5,2075.2c-23.5,790.2-312.9,1359.9-312.9,1816.8
		c0,438,239.2,829.7,251.9,1178.2c5.8,170.3-39.6,298.3-87.3,408.5c-61.9,143.1-145.2,268.8-163.7,435.8
		c-11.9,121.9,16.3,198.8,59.4,276.2c56.7,111.6,150.8,179.6,168.3,346.6c7.8,79-5.4,136.8-31.4,190.5
		c-59.9,119.1-189.2,139.3-206.5,268c-6.7,44.9,3.1,78.4,24.2,110.8c55.4,85.7,197.3,95.1,208.9,227.1c1.9,20.6-2.1,39.4-10.8,57.6
		c-43.6,92-233.7,115.8-233.7,258.4c0,116.1,239.7,73.1,239.7,193.4"/>
	<path id="XMLID_80_" class="st1" d="M168.3-49.2c0,0,30.7,1195.8,1.1,2062.2c-26.7,781.3-306.3,1352.1-306.3,1807
		c0,433.2,233,833,247.6,1185.5c6.7,171.7-36.5,301.4-81.8,411.5c-59.9,145.4-143.5,271.7-164.7,438
		c-13.5,120.8,11.6,198.7,52.9,278c54.3,115.6,149.8,183.1,169.8,348.1c8.9,77.9-2.7,136-27.6,191.6
		c-57.4,122.7-187,143.3-206.7,269.9c-7.7,44.3,0.9,77.9,21.1,111.5c53.1,88.5,196.5,97.2,209.9,228.4c2.1,20.5-1.5,39.4-9.8,58
		c-41.8,93.5-234.3,116.7-234.3,260.2c0,116.1,239.7,73.1,239.7,193.4"/>
	<path id="XMLID_79_" class="st1" d="M201.6-48.7c0,0,21.2,1181-12.3,2049.2c-29.8,772.4-299.8,1344.4-299.8,1797.1
		c0,428.5,226.7,836.4,243.2,1192.8c7.5,173-33.3,304.5-76.3,414.4C-1.5,5552.5-85.5,5679.4-109.3,5845
		c-15.2,119.7,7,198.6,46.5,279.9c52,119.6,148.8,186.6,171.2,349.6c10,76.9,0,135.3-23.9,192.7
		c-54.9,126.3-184.8,147.3-206.9,271.7c-8.6,43.7-1.3,77.5,18,112.1c50.8,91.4,195.9,99.2,211,229.6c2.4,20.4-0.8,39.5-8.8,58.4
		c-39.9,95.1-234.8,117.6-234.8,261.9c0,116.1,239.7,73.1,239.7,193.4"/>
	<path id="XMLID_78_" class="st1" d="M234.9-48.1c0,0,11.7,1166.2-25.7,2036.2C176.4,2751.5-84,3324.6-84,3775.3
		c0,423.7,220.5,839.8,238.8,1200.1c8.3,174.4-30.1,307.6-70.8,417.3c-55.8,150.1-140.2,277.5-166.7,442.4
		c-16.9,118.6,2.3,198.5,40,281.8C6.9,6240.6,105,6306.9,130,6468c11.1,75.8,2.7,134.6-20.1,193.8
		c-52.4,129.9-182.6,151.3-207.2,273.6c-9.6,43-3.6,77,14.9,112.7c48.5,94.2,195.3,101.2,212.1,230.9c2.6,20.3-0.2,39.5-7.8,58.8
		c-38.1,96.6-235.4,118.5-235.4,263.7c0,116.1,239.7,73.1,239.7,193.4"/>
	<path id="XMLID_77_" class="st1" d="M268.2-47.6c0,0,2.3,1151.5-39.1,2023.1C193.4,2730-57.5,3304.4-57.5,3753
		c0,418.9,214.3,843.1,234.4,1207.4c9.2,175.7-26.8,310.8-65.3,420.2C57.9,5533-27,5661-56.1,5825.2
		c-18.6,117.5-2.3,198.4,33.5,283.7c47.2,127.7,146.7,193.5,174.2,352.6c12.2,74.7,5.4,133.8-16.3,194.9
		c-49.9,133.5-180.3,155.3-207.4,275.4c-10.6,42.4-5.8,76.6,11.8,113.3c46.2,97,194.6,103.2,213.1,232.2c2.9,20.2,0.4,39.6-6.8,59.2
		c-36.2,98.2-236,119.4-236,265.5c0,116.1,239.7,73.1,239.7,193.4"/>
	<path id="XMLID_76_" class="st1" d="M301.6-47.1c0,0-7,1136.7-52.5,2010.1C210.3,2708.6-31,3284.1-31,3730.7
		c0,414.1,208.1,846.5,230,1214.7c10,177.1-23.5,314-59.8,423.1C87.7,5523.3,2.3,5651.8-29.5,5815.3c-20.3,116.4-7,198.2,27.1,285.5
		c44.9,131.7,145.7,196.9,175.6,354.1c13.3,73.6,8.1,133.1-12.5,195.9C113.2,6787.9-17.5,6810.1-47,6928.2
		c-11.5,41.8-8,76.1,8.6,113.9c43.9,99.9,194,105.2,214.2,233.5c3.2,20.2,1.1,39.6-5.8,59.5c-34.4,99.7-236.5,120.3-236.5,267.2
		c0,116.1,239.7,73.1,239.7,193.4"/>
	<path id="XMLID_75_" class="st1" d="M334.9-46.6c0,0-16.4,1121.9-65.8,1997.1C227.4,2687.2-4.5,3263.9-4.5,3708.3
		c0,409.4,201.9,849.8,225.6,1222c10.8,178.4-20.2,317.1-54.3,426c-49.2,157.2-135.2,286.3-169.7,449
		c-22,115.3-11.7,198.1,20.6,287.4c42.5,135.7,144.6,200.4,177.1,355.6c14.4,72.5,10.8,132.3-8.8,197
		c-44.9,140.7-175.9,163.3-207.9,279.1c-12.5,41.2-10.3,75.7,5.5,114.5c41.5,102.7,193.4,107.2,215.2,234.8
		c3.4,20.1,1.7,39.7-4.8,59.9C161.5,7435-43,7455-43,7602.8c0,116.1,239.7,73.1,239.7,193.4"/>
	<path id="XMLID_74_" class="st1" d="M368.2-46c0,0-25.6,1107.1-79.2,1984c-44.5,727.8-267,1305.6-267,1748
		c0,404.6,195.7,853.2,221.2,1229.3c11.7,179.7-16.9,320.3-48.8,429c-47,159.6-133.6,289.2-170.7,451.2
		c-23.7,114.2-16.3,198,14.2,289.3c40.2,139.7,143.6,203.9,178.6,357.1c15.5,71.5,13.4,131.6-5,198.1
		c-42.4,144.3-173.7,167.2-208.1,281c-13.4,40.6-12.5,75.2,2.4,115.1c39.2,105.5,192.8,109.2,216.3,236c3.7,20,2.4,39.7-3.8,60.3
		c-30.7,102.8-237.7,122.1-237.7,270.8c0,116.1,239.7,73.1,239.7,193.4"/>
	<path id="XMLID_73_" class="st1" d="M401.5-45.5c0,0-34.8,1092.3-92.6,1971C261.6,2644.3,48.4,3223.3,48.4,3663.7
		c0,399.8,189.5,856.6,216.9,1236.6c12.5,181.1-13.5,323.6-43.3,431.9C177.3,5494.2,90,5624.2,50.2,5785.5
		c-25.4,113.1-21,197.9,7.7,291.1c37.8,143.7,142.6,207.3,180,358.6c16.6,70.4,16.1,130.9-1.2,199.2
		c-39.9,147.9-171.5,171.2-208.4,282.9c-14.4,40-14.7,74.8-0.7,115.7c36.9,108.4,192.3,111.2,217.4,237.3c4,19.9,3,39.7-2.8,60.7
		C213.4,7435.4,4,7454.1,4,7603.6c0,116.1,239.7,73.1,239.7,193.4"/>
	<path id="XMLID_72_" class="st1" d="M434.8-45c0,0-44,1077.6-106,1958c-50,709.9-253.9,1290.1-253.9,1728.4
		c0,395.1,183.3,859.9,212.5,1243.9c13.3,182.4-10.1,326.8-37.8,434.8c-42.3,164.5-130.3,295-172.7,455.5
		c-27.1,112-25.6,197.8,1.3,293c35.4,147.7,141.5,210.8,181.5,360.1c17.7,69.3,18.8,130.1,2.5,200.3
		c-37.4,151.5-169.2,175.2-208.6,284.7C38.2,6953,36.6,6988,49.8,7030c34.6,111.2,191.7,113.2,218.4,238.6
		c4.2,19.8,3.6,39.8-1.8,61.1C239.3,7435.6,27.5,7453.6,27.5,7604c0,116.1,239.7,73.1,239.7,193.4"/>
	<path id="XMLID_71_" class="st1" d="M468.2-44.5c0,0-53,1062.8-119.4,1945C296,2601.5,101.4,3182.8,101.4,3619
		c0,390.3,177.1,863.3,208.1,1251.2c14.2,183.8-6.6,330-32.3,437.7c-39.9,167-128.6,298-173.7,457.7
		c-28.8,110.9-30.3,197.6-5.2,294.9c33.1,151.8,140.5,214.3,183,361.6c18.8,68.2,21.5,129.4,6.3,201.4
		c-34.9,155.1-167,179.2-208.8,286.6c-16.3,38.7-19.2,73.9-6.9,116.9c32.3,114,191.1,115.3,219.5,239.9c4.5,19.8,4.3,39.8-0.8,61.5
		c-25.2,107.4-239.4,124.8-239.4,276.1c0,116.1,239.7,73.1,239.7,193.4"/>
	<path id="XMLID_70_" class="st1" d="M501.5-43.9c0,0-62.1,1048-132.8,1931.9c-55.4,692.1-240.8,1274.6-240.8,1708.7
		c0,385.5,170.9,866.6,203.7,1258.5c15,185.1-3.1,333.2-26.8,440.6c-37.4,169.4-127,300.9-174.7,459.9
		c-30.5,109.8-34.9,197.5-11.6,296.8c30.7,155.8,139.5,217.7,184.4,363.1c19.9,67.2,24.2,128.6,10.1,202.5
		c-32.4,158.6-164.8,183.2-209.1,288.4c-17.3,38.1-21.4,73.4-10,117.5c30,116.8,190.5,117.3,220.5,241.2c4.8,19.7,4.9,39.9,0.2,61.9
		c-23.4,108.9-240,125.7-240,277.9c0,116.1,239.7,73.1,239.7,193.4"/>
	<path id="XMLID_69_" class="st1" d="M534.8-43.4c0,0-71,1033.2-146.2,1918.9c-58,683.2-234.3,1266.8-234.3,1698.9
		c0,380.7,164.7,870,199.3,1265.8c15.9,186.4,0.4,336.5-21.3,443.5c-34.9,171.9-125.3,303.8-175.7,462.1
		c-32.2,108.7-39.6,197.4-18.1,298.6c28.3,159.8,138.4,221.2,185.9,364.6c21,66.1,26.9,127.9,13.8,203.6
		c-29.9,162.2-162.6,187.2-209.3,290.3c-18.2,37.5-23.6,73-13.1,118.2c27.7,119.7,189.9,119.3,221.6,242.4c5,19.6,5.5,39.9,1.2,62.3
		C317,7436.2,98.1,7452.3,98.1,7605.3c0,116.1,239.7,73.1,239.7,193.4"/>
	<path id="XMLID_68_" class="st1" d="M568.1-42.9c0,0-79.9,1018.5-159.6,1905.9C348,2537.3,180.8,3122,180.8,3552
		c0,376,158.4,873.4,194.9,1273.1c16.7,187.8,3.9,339.7-15.8,446.5c-32.3,174.4-123.6,306.7-176.7,464.3
		c-33.9,107.6-44.3,197.3-24.5,300.5c26,163.8,137.4,224.6,187.4,366.1c22.1,65,29.6,127.2,17.6,204.7
		c-27.4,165.8-160.3,191.2-209.5,292.1c-19.2,36.9-25.9,72.5-16.2,118.8c25.4,122.5,189.3,121.3,222.6,243.7
		c5.3,19.5,6.2,40,2.2,62.6c-19.8,112-241.1,127.6-241.1,281.4c0,116.1,239.7,73.1,239.7,193.4"/>
	<path id="XMLID_67_" class="st1" d="M601.4-42.4c0,0-88.8,1003.7-173,1892.9c-63.1,665.4-221.2,1251.3-221.2,1679.2
		c0,371.2,152.2,876.7,190.6,1280.4c17.5,189.1,7.5,343-10.3,449.4c-29.6,176.9-122,309.6-177.7,466.5
		c-35.6,106.5-48.9,197.2-31,302.4c23.6,167.8,136.4,228.1,188.8,367.6c23.3,63.9,32.2,126.4,21.4,205.8
		c-24.9,169.4-158.1,195.2-209.8,294c-20.2,36.3-28.1,72.1-19.3,119.4c23.1,125.3,188.7,123.3,223.7,245c5.6,19.4,6.8,40,3.2,63
		c-18,113.5-241.7,128.5-241.7,283.2c0,116.1,239.7,73.1,239.7,193.4"/>
	<path id="XMLID_66_" class="st1" d="M634.7-41.9c0,0-97.5,989-186.4,1879.8c-65.5,656.5-214.6,1243.5-214.6,1669.4
		c0,366.4,146,880.1,186.2,1287.7c18.4,190.5,11.1,346.2-4.8,452.3c-26.9,179.4-120.3,312.6-178.7,468.7
		c-37.3,105.4-53.6,197-37.4,304.2c21.3,171.8,135.3,231.6,190.3,369.1c24.4,62.8,34.9,125.7,25.2,206.9
		c-22.4,173-155.9,199.2-210,295.8c-21.1,35.7-30.3,71.6-22.4,120c20.8,128.2,188.2,125.3,224.8,246.3c5.8,19.3,7.4,40.1,4.2,63.4
		c-16.2,115.1-242.3,129.4-242.3,284.9c0,116.1,239.7,73.1,239.7,193.4"/>
	<path id="XMLID_65_" class="st1" d="M668.1-41.3c0,0-106.2,974.3-199.8,1866.8C400.4,2473.1,260.2,3061.2,260.2,3485
		c0,361.7,139.8,883.4,181.8,1295c19.2,191.8,14.8,349.4,0.7,455.2C418.5,5417,324,5550.7,263,5706.1
		c-39,104.3-58.2,196.9-43.9,306.1c18.9,175.9,134.3,235,191.8,370.6c25.5,61.8,37.6,124.9,28.9,208
		c-20,176.6-153.7,203.2-210.3,297.7c-22.1,35.1-32.6,71.2-25.6,120.6c18.5,131,187.6,127.3,225.8,247.6c6.1,19.3,8.1,40.1,5.2,63.8
		c-14.4,116.6-242.8,130.3-242.8,286.7c0,116.1,239.7,73.1,239.7,193.4"/>
	<path id="XMLID_63_" class="st1" d="M701.4-40.8c0,0-114.8,959.6-213.2,1853.8c-70.3,638.8-201.5,1228-201.5,1649.7
		c0,356.9,133.6,886.8,177.4,1302.3c20,193.2,18.4,352.7,6.2,458.1c-21.4,184.3-117,318.4-180.7,473.1
		c-40.6,103.2-62.9,196.8-50.3,308c16.5,179.9,133.3,238.5,193.2,372.1c26.6,60.7,40.3,124.2,32.7,209.1
		c-17.5,180.2-151.5,207.2-210.5,299.5c-23,34.5-34.8,70.7-28.7,121.2c16.2,133.8,187.3,129.2,226.9,248.8
		c6.4,19.2,8.7,40.2,6.2,64.2c-12.8,118.1-243.4,131.2-243.4,288.5c0,116.1,239.7,73.1,239.7,193.4"/>
	<path id="XMLID_62_" class="st1" d="M734.7-40.3c0,0-123.3,944.9-226.6,1840.7c-72.6,629.9-195,1220.3-195,1639.9
		c0,352.1,127.4,890.2,173,1309.6c20.9,194.5,22.1,355.9,11.7,461c-18.5,186.8-115.4,321.3-181.6,475.2
		c-42.3,102.1-67.6,196.7-56.8,309.8c14.2,183.9,132.2,242,194.7,373.6c27.7,59.6,43,123.5,36.5,210.2
		c-15,183.8-149.2,211.2-210.7,301.4c-24,33.8-37,70.3-31.8,121.8c13.8,136.6,186.7,131.2,227.9,250.1c6.7,19.1,9.3,40.2,7.2,64.6
		c-11,119.7-244,132.1-244,290.3c0,116.1,239.7,73.1,239.7,193.4"/>
	<path id="XMLID_61_" class="st1" d="M768-39.8c0,0-131.8,930.2-240,1827.7C453.2,2409,339.6,3000.5,339.6,3418
		c0,347.4,121.2,893.5,168.6,1316.8c21.7,195.8,25.8,359.1,17.2,464c-15.6,189.3-113.7,324.2-182.6,477.4
		c-44,101-72.2,196.6-63.3,311.7c11.8,187.9,131.2,245.4,196.2,375.1c28.8,58.5,45.7,122.7,40.2,211.2
		c-12.5,187.4-147,215.2-211,303.2c-24.9,33.2-39.3,69.8-34.9,122.4c11.5,139.5,186.1,133.2,229,251.4c7,19,9.9,40.2,8.2,65
		c-9.1,121.2-244.6,133-244.6,292c0,116.1,239.7,73.1,239.7,193.4"/>
	<path id="XMLID_60_" class="st1" d="M801.3-39.2c0,0-140.1,915.5-253.4,1814.7c-77.1,612.2-181.9,1204.7-181.9,1620.2
		c0,342.6,115,896.9,164.3,1324.1c22.5,197.2,29.6,362.3,22.7,466.9c-12.6,191.7-112.1,327.2-183.6,479.6
		c-45.7,99.9-76.9,196.4-69.7,313.6c9.4,191.9,130.2,248.9,197.6,376.6c29.9,57.4,48.4,122,44,212.3
		c-10,191-144.8,219.2-211.2,305.1c-25.9,32.6-41.5,69.4-38,123c9.2,142.3,185.5,135.2,230.1,252.7c7.2,18.9,10.6,40.3,9.1,65.4
		c-7.3,122.8-245.1,133.9-245.1,293.8c0,116.1,239.7,73.1,239.7,193.4"/>
	<path id="XMLID_59_" class="st1" d="M834.7-38.7c0,0-148.4,900.9-266.8,1801.7c-79.3,603.4-175.3,1197-175.3,1610.4
		c0,337.8,108.8,900.2,159.9,1331.4c23.4,198.5,33.3,365.5,28.2,469.8c-9.5,194.1-110.4,330.1-184.6,481.8
		c-47.4,98.8-81.5,196.3-76.2,315.5c7.1,195.9,129.1,252.4,199.1,378.1c31,56.4,51,121.2,47.8,213.4
		c-7.5,194.6-142.6,223.2-211.5,306.9c-26.9,32-43.7,68.9-41.1,123.6c6.9,145.1,184.9,137.2,231.1,254c7.5,18.8,11.2,40.3,10.1,65.7
		c-5.5,124.3-245.7,134.8-245.7,295.6c0,116.1,239.7,73.1,239.7,193.4"/>
	<path id="XMLID_58_" class="st1" d="M868-38.2c0,0-156.5,886.2-280.2,1788.6C506.4,2345,419.1,2939.7,419.1,3351
		c0,333,102.6,903.6,155.5,1338.7c24.2,199.9,37.1,368.7,33.7,472.7c-6.4,196.5-108.7,333-185.6,484
		c-49.1,97.7-86.2,196.2-82.6,317.3c4.7,200,128.1,255.8,200.6,379.6c32.1,55.3,53.7,120.5,51.6,214.5
		c-5,198.2-140.3,227.1-211.7,308.8c-27.8,31.4-46,68.5-44.2,124.2c4.6,148,184.3,139.3,232.2,255.2c7.8,18.8,11.9,40.4,11.1,66.1
		c-3.7,125.9-246.3,135.7-246.3,297.3c0,116.1,239.7,73.1,239.7,193.4"/>
	<path id="XMLID_57_" class="st1" d="M901.3-37.7c0,0-163.5,871.8-293.5,1775.6c-82.8,585.9-162.2,1181.5-162.2,1590.8
		c0,328.3,96.4,907,151.1,1346c25,201.2,40.9,371.9,39.2,475.6c-3.2,198.9-107.1,335.9-186.6,486.2
		c-50.8,96.6-90.9,196.1-89.1,319.2c2.4,204,127.1,259.3,202,381.1c33.2,54.2,56.4,119.8,55.3,215.6
		c-2.5,201.8-138.1,231.1-211.9,310.6c-28.8,30.8-48.2,68-47.3,124.8c2.3,150.8,183.7,141.3,233.2,256.5c8,18.7,12.5,40.4,12.1,66.5
		c-1.8,127.4-246.8,136.6-246.8,299.1c0,116.1,239.7,73.1,239.7,193.4"/>
	<path id="XMLID_56_" class="st1" d="M934.6-37.1c0,0-462.6,2297.2-462.6,3343.5c0,471.4,191.4,1502,191.4,1831.9
		c0,329.9-283.1,488.5-283.1,809.4c0,300.2,262.6,281.2,262.6,599.3c0,285.5-262.6,231.6-262.6,437.9
		c0,178.6,247.4,135.6,247.4,324.7c0,129-247.4,137.5-247.4,300.9c0,116.1,239.7,73.1,239.7,193.4"/>
</g>
</svg>
