<?xml version="1.0" encoding="utf-8"?>
<!-- Generator: Adobe Illustrator 19.0.0, SVG Export Plug-In . SVG Version: 6.00 Build 0)  -->
<svg version="1.1" xmlns="http://www.w3.org/2000/svg" xmlns:xlink="http://www.w3.org/1999/xlink" x="0px" y="0px"
	 viewBox="0 0 2236.6 7946.5" style="enable-background:new 0 0 2236.6 7946.5;" xml:space="preserve">
<style type="text/css">
	.st0{display:none;}
	.st1{display:inline;fill:#D88394;}
	.st2{fill:none;stroke:#FFEEEF;stroke-miterlimit:10;}
	.st3{fill:none;stroke:#FFFFFF;stroke-width:4;stroke-linecap:round;stroke-miterlimit:10;}
</style>
<g id="Layer_2" class="st0">
	<rect id="XMLID_107_" class="st1" width="2236.6" height="8003.6"/>
</g>
<g id="Layer_1">
	<path id="XMLID_64_" class="st2" d="M288.4-458.6"/>
	<g id="XMLID_1_">
		<path id="XMLID_154_" class="st3" d="M326.9,39.7c0,0,108.3,1313.9,108.3,2166.4S76.5,3620.3,76.5,4091.7
			s282.6,806.1,282.6,1127.1c0,347.3-282.6,487.7-282.6,808.6c0,300.2,262.6,281.2,262.6,599.3c0,285.5-262.6,231.6-262.6,437.9
			c0,178.6,247.4,135.6,247.4,324.7c0,129-247.4,137.5-247.4,300.9c0,116.1,239.7,73.1,239.7,193.4"/>
		<path id="XMLID_153_" class="st3" d="M380,40.1c0,0,100.5,1301.2,96.7,2155.2c-2.4,844.9-353.1,1407.5-353.1,1877.1
			c0,467.3,277.3,809,278.8,1133.4c0.7,162.1-58.2,279.9-121.1,390.6c-73.8,129.8-155.3,250.8-157.6,422.4
			c-1.5,128.6,44.9,199.6,99,264.7c71.2,87,157.2,158.4,159.3,337.5c1,85.7-21.8,141.3-54.6,183.8c-75.2,97-202.9,114.8-205,256.7
			c-0.8,48.6,16.8,81.1,43.3,107.1c69.6,68.3,201,82.8,202.4,219.2c0.2,21.1-6.1,39.1-16.9,55.2c-55.1,82.4-230.2,110.2-230.2,247.5
			c0,116.1,239.7,73.1,239.7,193.4"/>
		<path id="XMLID_152_" class="st3" d="M433,40.6c0,0,92.7,1288.5,85.2,2144c-4.8,837.2-347.4,1400.8-347.4,1868.7
			c0,463.2,271.9,811.9,275.1,1139.7c1.4,163.3-55.7,282.4-116.4,393.1c-72.2,131.6-153.9,253.4-158.5,424.3
			c-2.9,127.7,40.9,199.5,93.4,266.3C333.6,6367,420.7,6438,425,6615.4c1.9,84.7-19.5,140.7-51.3,184.7
			c-73,100.1-201,118.2-205.2,258.3c-1.7,48.1,14.9,80.8,40.6,107.6c67.6,70.8,200.5,84.5,203.3,220.3c0.5,21-5.5,39.1-16,55.6
			c-53.5,83.7-230.7,111-230.7,249c0,116.1,239.7,73.1,239.7,193.4"/>
		<path id="XMLID_151_" class="st3" d="M486,41c0,0,83,1275.8,73.7,2132.8c-9,829.6-341.8,1394.2-341.8,1860.2
			c0,459.1,266.6,814.8,271.3,1145.9c2.2,164.4-53.1,285-111.6,395.7C307,5709,225.1,5831.5,218.2,6001.8
			c-4.4,126.7,36.9,199.4,87.9,267.9c67.1,93.9,155.4,164.3,161.8,340c2.9,83.8-17.2,140-48.1,185.7
			c-70.9,103.2-199,121.7-205.4,259.9c-2.5,47.6,13,80.4,37.9,108.2c65.6,73.2,199.9,86.3,204.2,221.4c0.7,20.9-5,39.1-15.2,55.9
			c-52,85-231.2,111.8-231.2,250.6c0,116.1,239.7,73.1,239.7,193.4"/>
		<path id="XMLID_150_" class="st3" d="M539.1,41.5c0,0,74.6,1263.1,62.1,2121.6c-11.9,821.9-336.2,1387.5-336.2,1851.7
			c0,455,261.2,817.7,267.5,1152.2c2.9,165.6-50.5,287.5-106.9,398.2c-68.9,135.3-151.1,258.4-160.2,428.1
			c-5.8,125.8,32.9,199.3,82.3,269.5c65.1,97.3,154.5,167.3,163.1,341.3c3.8,82.9-14.9,139.4-44.8,186.6
			C397.4,6897,269,6915.8,260.5,7052.1c-3.3,47.1,11.1,80,35.2,108.7c63.6,75.7,199.4,88,205.1,222.5c0.9,20.8-4.4,39.2-14.3,56.2
			c-50.4,86.3-231.6,112.5-231.6,252.1c0,116.1,239.7,73.1,239.7,193.4"/>
		<path id="XMLID_149_" class="st3" d="M592.1,41.9c0,0,66.2,1250.4,50.6,2110.3C628,2966.5,312.2,3533,312.2,3995.5
			c0,450.9,255.9,820.6,263.7,1158.5c3.6,166.7-47.9,290.1-102.2,400.7c-67.3,137.1-149.6,260.9-161.1,429.9
			c-7.3,124.8,28.9,199.2,76.7,271.1c63.1,100.8,153.6,170.3,164.4,342.6c4.8,81.9-12.6,138.8-41.6,187.5
			c-66.6,109.4-195.2,128.5-205.8,263.1c-4.1,46.5,9.2,79.6,32.6,109.2c61.6,78.1,198.9,89.7,206,223.6c1.2,20.8-3.9,39.2-13.5,56.6
			c-48.8,87.7-232.1,113.3-232.1,253.6c0,116.1,239.7,73.1,239.7,193.4"/>
		<path id="XMLID_148_" class="st3" d="M645.2,42.4c0,0,57.9,1237.7,39.1,2099.1C666.6,2948,359.4,3515.6,359.4,3976.3
			c0,446.7,250.5,823.5,260,1164.8c4.3,167.9-45.3,292.7-97.4,403.2c-65.6,139-148.2,263.4-161.9,431.8
			c-8.8,123.9,24.8,199.1,71.2,272.7c61,104.2,152.7,173.3,165.6,343.9c5.7,81-10.3,138.1-38.3,188.5
			c-64.4,112.5-193.3,132-206,264.7c-5,46,7.2,79.2,29.9,109.7c59.6,80.5,198.4,91.4,206.9,224.7c1.4,20.7-3.3,39.3-12.6,56.9
			c-47,89.1-232.6,114.1-232.6,255.1c0,116.1,239.7,73.1,239.7,193.4"/>
		<path id="XMLID_144_" class="st3" d="M698.2,42.8c0,0,49.6,1224.9,27.5,2087.9c-20.4,798.9-319.2,1367.4-319.2,1826.4
			c0,442.6,245.2,826.4,256.2,1171.1c5,169-42.6,295.3-92.7,405.7c-63.9,140.9-146.8,265.9-162.8,433.7
			c-10.2,123,20.8,199,65.6,274.4c59,107.7,151.8,176.3,166.9,345.2c6.7,80.1-8,137.5-35.1,189.4
			c-62.3,115.6-191.4,135.4-206.2,266.2c-5.8,45.5,5.3,78.8,27.2,110.3c57.6,83,197.9,93.2,207.9,225.8c1.6,20.6-2.8,39.3-11.7,57.2
			c-45.4,90.5-233.1,114.9-233.1,256.7c0,116.1,239.7,73.1,239.7,193.4"/>
		<path id="XMLID_143_" class="st3" d="M751.3,43.3c0,0,41.3,1212.2,16,2076.7c-23.2,791.2-313.6,1360.8-313.6,1817.9
			c0,438.5,239.9,829.3,252.4,1177.4c5.7,170.2-40,297.9-88,408.2C556,5666.3,472.8,5791.9,454.5,5959
			c-11.7,122,16.8,198.8,60.1,276c57,111.2,150.9,179.2,168.1,346.5c7.6,79.1-5.6,136.9-31.8,190.4
			c-60.1,118.7-189.5,138.8-206.4,267.8c-6.6,44.9,3.4,78.4,24.5,110.8c55.6,85.4,197.4,94.9,208.8,226.9
			c1.8,20.6-2.2,39.4-10.9,57.6c-43.8,91.8-233.6,115.7-233.6,258.2c0,116.1,239.7,73.1,239.7,193.4"/>
		<path id="XMLID_142_" class="st3" d="M804.3,43.7c0,0,33.1,1199.5,4.5,2065.5c-25.9,783.5-308,1354.1-308,1809.4
			c0,434.4,234.5,832.2,248.6,1183.7c6.5,171.4-37.3,300.6-83.2,410.7c-60.4,144.8-143.9,271-164.5,437.5
			c-13.1,121.1,12.8,198.7,54.5,277.6c54.9,114.6,150.1,182.2,169.4,347.8c8.6,78.2-3.3,136.2-28.6,191.3
			c-58,121.8-187.6,142.3-206.6,269.4c-7.4,44.4,1.5,78,21.9,111.3c53.7,87.8,196.9,96.6,209.7,228c2.1,20.5-1.6,39.4-10,57.9
			c-42.2,93.1-234.1,116.4-234.1,259.7c0,116.1,239.7,73.1,239.7,193.4"/>
		<path id="XMLID_140_" class="st3" d="M857.4,44.2c0,0,24.9,1186.8-7.1,2054.2C821.7,2874.2,548,3445.8,548,3899.4
			c0,430.3,229.2,835.1,244.9,1189.9c7.2,172.5-34.5,303.3-78.5,413.2C655.7,5649.4,571.9,5776,549,5941.9
			c-14.6,120.1,8.8,198.6,49,279.2c52.9,118.1,149.2,185.2,170.7,349.1c9.5,77.3-1,135.6-25.3,192.2
			c-55.8,124.9-185.6,145.7-206.8,271c-8.3,43.9-0.5,77.7,19.2,111.8c51.7,90.3,196.1,98.4,210.6,229.1c2.3,20.4-1.1,39.5-9.2,58.2
			c-40.6,94.5-234.6,117.2-234.6,261.2c0,116.1,239.7,73.1,239.7,193.4"/>
		<path id="XMLID_139_" class="st3" d="M910.4,44.6c0,0,16.7,1174-18.6,2043c-31.2,768.2-296.7,1340.7-296.7,1792.5
			c0,426.2,223.8,838,241.1,1196.2c7.9,173.7-31.8,306-73.7,415.7c-56.9,148.8-141.1,276-166.2,441.3
			c-16,119.2,4.8,198.5,43.4,280.8c50.9,121.5,148.3,188.2,171.9,350.3c10.5,76.4,1.3,134.9-22.1,193.2
			c-53.7,128-183.7,149.2-207,272.6c-9.1,43.4-2.4,77.3,16.5,112.4c49.7,92.7,195.6,100.1,211.5,230.3c2.5,20.4-0.5,39.5-8.3,58.6
			c-39.1,95.8-235.1,118-235.1,262.8c0,116.1,239.7,73.1,239.7,193.4"/>
		<path id="XMLID_138_" class="st3" d="M963.5,45.1c0,0,8.6,1161.3-30.1,2031.8c-33.8,760.5-291,1334-291,1784
			c0,422.1,218.5,840.9,237.3,1202.5c8.6,174.8-29,308.7-69,418.3c-55.1,150.8-139.7,278.5-167.1,443.1
			c-17.5,118.2,0.8,198.4,37.8,282.4c48.8,125,147.4,191.2,173.2,351.6c11.4,75.4,3.6,134.3-18.8,194.1
			c-51.5,131.1-181.8,152.6-207.2,274.2c-9.9,42.8-4.3,76.9,13.8,112.9c47.7,95.1,195,101.8,212.4,231.4c2.7,20.3,0,39.5-7.5,58.9
			c-37.5,97.1-235.6,118.8-235.6,264.3c0,116.1,239.7,73.1,239.7,193.4"/>
		<path id="XMLID_137_" class="st3" d="M1016.5,45.5c0,0,0.5,1148.6-41.7,2020.6c-36.4,752.8-285.4,1327.4-285.4,1775.6
			c0,418,213.1,843.8,233.5,1208.8c9.3,176-26.2,311.4-64.3,420.8c-53.2,152.9-138.2,281-167.9,445c-19,117.3-3.2,198.3,32.3,284
			c46.8,128.5,146.5,194.2,174.5,352.9c12.4,74.5,5.9,133.7-15.6,195.1c-49.4,134.2-179.9,156-207.4,275.8
			c-10.7,42.3-6.2,76.5,11.1,113.4c45.7,97.6,194.5,103.6,213.3,232.5c2.9,20.2,0.6,39.6-6.6,59.2
			c-35.9,98.5-236.1,119.6-236.1,265.8c0,116.1,239.7,73.1,239.7,193.4"/>
		<path id="XMLID_136_" class="st3" d="M1069.6,46c0,0-7.6,1135.9-53.2,2009.4C977.4,2800.4,736.6,3376,736.6,3822.5
			c0,413.9,207.8,846.7,229.8,1215.1c10.1,177.1-23.4,314.1-59.5,423.3c-51.3,154.9-136.8,283.5-168.8,446.9
			c-20.4,116.3-7.3,198.2,26.7,285.6c44.8,131.9,145.6,197.1,175.7,354.2c13.3,73.6,8.2,133-12.3,196
			c-47.2,137.3-178,159.5-207.7,277.4c-11.6,41.8-8.1,76.1,8.5,113.9c43.7,100,194,105.3,214.2,233.6c3.2,20.2,1.1,39.6-5.7,59.6
			c-34.3,99.8-236.6,120.4-236.6,267.3c0,116.1,239.7,73.1,239.7,193.4"/>
		<path id="XMLID_135_" class="st3" d="M1122.6,46.4c0,0-15.6,1123.1-64.7,1998.2c-41.4,737.4-274.1,1314-274.1,1758.7
			c0,409.8,202.4,849.6,226,1221.4c10.8,178.3-20.5,316.9-54.8,425.8c-49.4,157-135.4,286-169.6,448.8
			c-21.9,115.4-11.3,198.1,21.2,287.2c42.7,135.4,144.7,200.1,177,355.5c14.3,72.6,10.5,132.4-9.1,196.9
			c-45.1,140.4-176.1,162.9-207.9,279c-12.4,41.2-10.1,75.7,5.8,114.4c41.7,102.5,193.5,107,215.1,234.7c3.4,20.1,1.7,39.7-4.9,59.9
			C949.9,7528,745.5,7548,745.5,7695.7c0,116.1,239.7,73.1,239.7,193.4"/>
		<path id="XMLID_134_" class="st3" d="M1175.6,46.9c0,0-23.6,1110.4-76.3,1986.9c-43.9,729.7-268.5,1307.3-268.5,1750.2
			c0,405.7,197.1,852.4,222.2,1227.6c11.5,179.4-17.6,319.6-50,428.3c-47.5,159.1-134,288.6-170.5,450.7
			c-23.3,114.4-15.3,198,15.6,288.9c40.7,138.8,143.8,203.1,178.2,356.8c15.3,71.7,12.9,131.8-5.8,197.9
			c-43,143.5-174.2,166.4-208.1,280.6c-13.2,40.7-12,75.3,3.1,115c39.7,104.9,193,108.8,216.1,235.8c3.6,20,2.2,39.7-4,60.2
			c-31.1,102.4-237.6,121.9-237.6,270.4c0,116.1,239.7,73.1,239.7,193.4"/>
		<path id="XMLID_133_" class="st3" d="M1228.7,47.3c0,0-31.5,1097.7-87.8,1975.7c-46.3,722.1-262.8,1300.6-262.8,1741.7
			c0,401.6,191.7,855.3,218.4,1233.9c12.2,180.6-14.7,322.4-45.3,430.8c-45.5,161.2-132.5,291.1-171.3,452.6
			c-24.8,113.5-19.3,197.9,10.1,290.5c38.6,142.3,142.9,206.1,179.5,358.1c16.2,70.8,15.2,131.1-2.6,198.8
			c-40.8,146.6-172.3,169.8-208.3,282.2c-14,40.2-13.9,74.9,0.4,115.5c37.8,107.3,192.5,110.5,217,236.9c3.9,19.9,2.8,39.7-3.2,60.6
			c-29.6,103.8-238.1,122.7-238.1,271.9c0,116.1,239.7,73.1,239.7,193.4"/>
		<path id="XMLID_132_" class="st3" d="M1281.7,47.8c0,0-39.4,1084.9-99.3,1964.5c-48.7,714.4-257.2,1294-257.2,1733.3
			c0,397.4,186.4,858.2,214.7,1240.2c12.9,181.7-11.8,325.2-40.6,433.3c-43.5,163.3-131.1,293.6-172.2,454.5
			c-26.3,112.5-23.3,197.8,4.5,292.1c36.6,145.7,142.1,209.1,180.8,359.4c17.2,69.8,17.5,130.5,0.6,199.8
			c-38.7,149.7-170.3,173.2-208.5,283.8c-14.9,39.7-15.8,74.6-2.2,116c35.8,109.8,192,112.2,217.9,238c4.1,19.9,3.3,39.8-2.3,60.9
			c-28,105.1-238.5,123.5-238.5,273.4c0,116.1,239.7,73.1,239.7,193.4"/>
		<path id="XMLID_131_" class="st3" d="M1334.8,48.2c0,0-47.2,1072.2-110.9,1953.3c-51,706.7-251.6,1287.3-251.6,1724.8
			c0,393.3,181,861.1,210.9,1246.5c13.6,182.9-8.8,327.9-35.8,435.8C1106,5574,1017.7,5704.7,974.4,5865
			c-27.7,111.6-27.3,197.7-1.1,293.7c34.6,149.2,141.2,212,182,360.6c18.1,68.9,19.8,129.8,3.9,200.7
			c-36.5,152.8-168.4,176.7-208.7,285.4c-15.7,39.1-17.8,74.2-4.9,116.5c33.8,112.2,191.4,114,218.8,239.1
			c4.3,19.8,3.9,39.8-1.4,61.2c-26.4,106.4-239,124.3-239,275c0,116.1,239.7,73.1,239.7,193.4"/>
		<path id="XMLID_130_" class="st3" d="M1387.8,48.7c0,0-55.1,1059.5-122.4,1942.1c-53.3,699-245.9,1280.6-245.9,1716.3
			c0,389.2,175.7,864,207.1,1252.8c14.4,184.1-5.8,330.7-31.1,438.4c-39.3,167.5-128.2,298.6-173.9,458.2
			c-29.2,110.7-31.3,197.6-6.6,295.3c32.5,152.7,140.3,215,183.3,361.9c19.1,68,22.1,129.2,7.1,201.7
			c-34.4,155.8-166.5,180.1-208.9,287c-16.5,38.6-19.7,73.8-7.6,117.1c31.8,114.6,190.9,115.7,219.7,240.2
			c4.6,19.7,4.4,39.9-0.6,61.6c-24.8,107.7-239.5,125-239.5,276.5c0,116.1,239.7,73.1,239.7,193.4"/>
		<path id="XMLID_129_" class="st3" d="M1440.9,49.1c0,0-62.8,1046.8-133.9,1930.9c-55.6,691.4-240.3,1273.9-240.3,1707.9
			c0,385.1,170.3,866.9,203.3,1259.1c15.1,185.2-2.8,333.5-26.4,440.9c-37.2,169.6-126.8,301.1-174.8,460.1
			c-30.6,109.7-35.3,197.5-12.2,296.9c30.5,156.1,139.4,218,184.6,363.2c20,67.1,24.4,128.6,10.4,202.6
			c-32.2,158.9-164.6,183.6-209.1,288.6c-17.4,38.1-21.6,73.4-10.3,117.6c29.8,117.1,190.4,117.4,220.6,241.3
			c4.8,19.7,5,39.9,0.3,61.9c-23.3,109.1-240,125.8-240,278c0,116.1,239.7,73.1,239.7,193.4"/>
		<path id="XMLID_128_" class="st3" d="M1493.9,49.6c0,0-70.5,1034.1-145.5,1919.6c-57.9,683.7-234.6,1267.2-234.6,1699.4
			c0,381,165,869.8,199.6,1265.4c15.8,186.4,0.2,336.3-21.6,443.4c-35,171.8-125.4,303.6-175.6,462
			c-32.1,108.8-39.4,197.4-17.7,298.5c28.5,159.6,138.5,221,185.8,364.5c21,66.1,26.7,127.9,13.6,203.5
			c-30.1,162-162.7,187-209.3,290.2c-18.2,37.6-23.5,73-12.9,118.1c27.8,119.5,189.9,119.2,221.5,242.4c5,19.6,5.5,39.9,1.1,62.2
			c-21.7,110.4-240.5,126.6-240.5,279.5c0,116.1,239.7,73.1,239.7,193.4"/>
		<path id="XMLID_127_" class="st3" d="M1547,50c0,0-78.2,1021.4-157,1908.4c-60.1,676-229,1260.5-229,1691
			c0,376.9,159.7,872.7,195.8,1271.6c16.5,187.5,3.2,339.1-16.9,445.9c-32.8,173.9-124,306.2-176.5,463.9
			c-33.5,107.8-43.4,197.3-23.3,300.1c26.4,163,137.6,224,187.1,365.8c21.9,65.2,29,127.3,16.9,204.5
			c-27.9,165.1-160.8,190.4-209.5,291.7c-19,37-25.4,72.6-15.6,118.6c25.8,121.9,189.4,120.9,222.4,243.5c5.3,19.5,6.1,40,2,62.6
			c-20.1,111.7-241,127.4-241,281.1c0,116.1,239.7,73.1,239.7,193.4"/>
		<path id="XMLID_126_" class="st3" d="M1600,50.5c0,0-85.8,1008.7-168.5,1897.2c-62.2,668.4-223.4,1253.9-223.4,1682.5
			c0,372.8,154.3,875.6,192,1277.9c17.2,188.7,6.3,341.9-12.1,448.4c-30.5,176.1-122.5,308.7-177.3,465.8
			c-35,106.9-47.4,197.2-28.8,301.7c24.4,166.5,136.7,227,188.3,367.1c22.9,64.3,31.4,126.7,20.1,205.4
			c-25.8,168.2-158.9,193.9-209.7,293.3c-19.8,36.5-27.4,72.2-18.3,119.2c23.8,124.4,188.9,122.6,223.3,244.6
			c5.5,19.5,6.6,40,2.8,62.9c-18.6,113-241.5,128.2-241.5,282.6c0,116.1,239.7,73.1,239.7,193.4"/>
		<path id="XMLID_125_" class="st3" d="M1653.1,50.9c0,0-93.4,996-180.1,1886c-64.4,660.7-217.7,1247.2-217.7,1674
			c0,368.7,149,878.5,188.2,1284.2c18,189.8,9.4,344.7-7.4,450.9c-28.2,178.2-121.1,311.2-178.2,467.6
			c-36.5,105.9-51.4,197.1-34.4,303.3c22.4,169.9,135.8,229.9,189.6,368.4c23.8,63.3,33.7,126,23.4,206.4
			c-23.6,171.3-156.9,197.3-209.9,294.9c-20.7,36-29.3,71.8-21,119.7c21.9,126.8,188.4,124.3,224.3,245.7c5.7,19.4,7.1,40,3.7,63.2
			c-17,114.4-242,129-242,284.1c0,116.1,239.7,73.1,239.7,193.4"/>
		<path id="XMLID_124_" class="st3" d="M1706.1,51.4c0,0-100.9,983.3-191.6,1874.8c-66.5,653.1-212.1,1240.5-212.1,1665.6
			c0,364.6,143.6,881.4,184.5,1290.5c18.7,191,12.5,347.5-2.7,453.4c-25.9,180.3-119.7,313.7-179.1,469.5c-37.9,105-55.4,197-40,305
			c20.3,173.4,134.9,232.9,190.9,369.7c24.8,62.4,36,125.4,26.6,207.3c-21.5,174.4-155,200.7-210.1,296.5
			c-21.5,35.4-31.2,71.4-23.7,120.2c19.9,129.3,188,126.1,225.2,246.8c6,19.3,7.7,40.1,4.6,63.6
			c-15.5,115.7-242.5,129.7-242.5,285.6c0,116.1,239.7,73.1,239.7,193.4"/>
		<path id="XMLID_123_" class="st3" d="M1759.2,51.8c0,0-108.3,970.6-203.1,1863.5c-68.5,645.4-206.4,1233.8-206.4,1657.1
			c0,360.5,138.3,884.3,180.7,1296.8c19.4,192.1,15.7,350.3,2.1,455.9c-23.5,182.5-118.3,316.2-179.9,471.4
			c-39.4,104-59.4,196.9-45.5,306.6c18.3,176.9,134.1,235.9,192.1,371c25.7,61.5,38.3,124.7,29.9,208.2
			c-19.3,177.5-153.1,204.2-210.3,298.1c-22.3,34.9-33.1,71.1-26.3,120.7c17.9,131.7,187.5,127.8,226.1,247.9
			c6.2,19.2,8.2,40.1,5.4,63.9c-13.9,117-243,130.5-243,287.2c0,116.1,239.7,73.1,239.7,193.4"/>
		<path id="XMLID_122_" class="st3" d="M1812.2,52.3c0,0-115.7,957.9-214.7,1852.3c-70.5,637.8-200.8,1227.1-200.8,1648.6
			c0,356.4,132.9,887.2,176.9,1303.1c20.1,193.3,18.8,353,6.8,458.4c-21.1,184.6-116.8,318.7-180.8,473.3
			c-40.8,103.1-63.4,196.8-51.1,308.2c16.3,180.3,133.2,238.9,193.4,372.2c26.7,60.6,40.6,124.1,33.1,209.2
			c-17.2,180.6-151.2,207.6-210.5,299.7c-23.1,34.4-35,70.7-29,121.3c15.9,134.1,187.2,129.4,227,249c6.5,19.2,8.7,40.2,6.3,64.2
			c-12.6,118.3-243.5,131.3-243.5,288.7c0,116.1,239.7,73.1,239.7,193.4"/>
		<path id="XMLID_121_" class="st3" d="M1865.2,52.7c0,0-123.1,945.3-226.2,1841.1c-72.5,630.2-195.2,1220.5-195.2,1640.2
			c0,352.3,127.6,890.1,173.1,1309.3c20.8,194.5,22,355.8,11.5,461c-18.6,186.7-115.4,321.2-181.6,475.2
			c-42.3,102.1-67.4,196.7-56.6,309.8c14.2,183.8,132.3,241.9,194.7,373.5c27.7,59.6,42.9,123.5,36.4,210.1
			c-15,183.7-149.3,211.1-210.7,301.3c-24,33.9-37,70.3-31.7,121.8c13.9,136.6,186.7,131.2,227.9,250.1c6.7,19.1,9.3,40.2,7.1,64.6
			c-11,119.6-244,132.1-244,290.2c0,116.1,239.7,73.1,239.7,193.4"/>
		<path id="XMLID_120_" class="st3" d="M1918.3,53.2c0,0-130.4,932.6-237.7,1829.9C1606,2505.6,1491,3096.9,1491,3514.8
			c0,348.1,122.2,893,169.4,1315.6c21.6,195.6,25.2,358.6,16.3,463.5c-16.1,188.8-114,323.8-182.5,477.1
			c-43.8,101.2-71.4,196.6-62.2,311.4c12.2,187.2,131.4,244.9,195.9,374.8c28.6,58.7,45.2,122.8,39.6,211.1
			c-12.9,186.8-147.4,214.5-210.9,302.9c-24.8,33.3-38.9,69.9-34.4,122.3c11.9,139,186.2,132.9,228.8,251.2c6.9,19,9.8,40.2,8,64.9
			c-9.4,121-244.5,132.9-244.5,291.7c0,116.1,239.7,73.1,239.7,193.4"/>
		<path id="XMLID_119_" class="st3" d="M1971.3,53.6c0,0-137.6,920-249.3,1818.7c-76.4,614.9-183.9,1207.1-183.9,1623.3
			c0,344,116.9,895.9,165.6,1321.9c22.3,196.8,28.4,361.3,21,466c-13.5,191-112.6,326.3-183.3,479c-45.2,100.3-75.5,196.5-67.7,313
			c10.2,190.7,130.5,247.8,197.2,376.1c29.6,57.8,47.5,122.2,42.9,212c-10.7,189.9-145.5,217.9-211.1,304.5
			c-25.6,32.8-40.8,69.5-37,122.8c9.9,141.4,185.7,134.6,229.7,252.3c7.2,18.9,10.4,40.3,8.8,65.2c-7.9,122.3-245,133.6-245,293.3
			c0,116.1,239.7,73.1,239.7,193.4"/>
		<path id="XMLID_118_" class="st3" d="M2024.4,54.1c0,0-144.7,907.4-260.8,1807.5c-78.3,607.3-178.2,1200.4-178.2,1614.8
			c0,339.9,111.5,898.8,161.8,1328.2c23,197.9,31.6,364.1,25.8,468.5c-10.9,193.1-111.1,328.8-184.2,480.8
			c-46.7,99.3-79.5,196.4-73.3,314.6c8.1,194.2,129.6,250.8,198.4,377.4c30.5,56.8,49.9,121.6,46.1,212.9
			c-8.6,193-143.6,221.4-211.3,306.1c-26.4,32.3-42.7,69.1-39.7,123.4c7.9,143.9,185.2,136.4,230.6,253.4
			c7.4,18.9,10.9,40.3,9.7,65.6c-6.3,123.6-245.4,134.4-245.4,294.8c0,116.1,239.7,73.1,239.7,193.4"/>
		<path id="XMLID_117_" class="st3" d="M2077.4,54.5c0,0-151.8,894.8-272.3,1796.2c-80.2,599.7-172.6,1193.7-172.6,1606.3
			c0,335.8,106.2,901.6,158,1334.5c23.7,199.1,34.9,366.8,30.5,471c-8.2,195.1-109.7,331.3-185,482.7
			c-48.1,98.4-83.5,196.3-78.9,316.2c6.1,197.6,128.7,253.8,199.7,378.7c31.5,55.9,52.2,120.9,49.4,213.9
			c-6.4,196.1-141.6,224.8-211.6,307.7c-27.3,31.7-44.7,68.7-42.4,123.9c6,146.3,184.7,138.1,231.6,254.5
			c7.6,18.8,11.5,40.4,10.6,65.9c-4.7,125-245.9,135.2-245.9,296.3c0,116.1,239.7,73.1,239.7,193.4"/>
		<path id="XMLID_116_" class="st3" d="M2130.5,55c0,0-158.8,882.2-283.9,1785c-82,592.1-167,1187.1-167,1597.9
			c0,331.7,100.8,904.5,154.3,1340.8c24.4,200.2,38.1,369.6,35.2,473.5c-5.5,197.2-108.3,333.8-185.9,484.6
			c-49.6,97.4-87.5,196.2-84.4,317.8c4.1,201.1,127.8,256.8,201,380c32.4,55,54.5,120.3,52.6,214.8
			c-4.3,199.2-139.7,228.3-211.8,309.3c-28.1,31.2-46.6,68.3-45.1,124.4c4,148.8,184.1,139.8,232.5,255.6
			c7.8,18.7,12,40.4,11.4,66.2c-3.1,126.3-246.4,136-246.4,297.8c0,116.1,239.7,73.1,239.7,193.4"/>
		<path id="XMLID_115_" class="st3" d="M2183.5,55.4c0,0-164.8,869.7-295.4,1773.8c-83.2,584.7-161.3,1180.4-161.3,1589.4
			c0,327.6,95.5,907.4,150.5,1347.1c25.1,201.4,41.4,372.3,40,476c-2.8,199.3-106.9,336.3-186.8,486.5c-51,96.5-91.5,196.1-90,319.5
			c2,204.5,126.9,259.8,202.2,381.3c33.4,54,56.8,119.6,55.9,215.8c-2.1,202.3-137.8,231.7-212,310.9c-28.9,30.7-48.5,68-47.7,124.9
			c2,151.2,183.6,141.5,233.4,256.7c8.1,18.7,12.6,40.4,12.3,66.6c-1.6,127.6-246.9,136.8-246.9,299.4
			c0,116.1,239.7,73.1,239.7,193.4"/>
		<path id="XMLID_114_" class="st3" d="M2236.6,55.9c0,0-462.6,2297.2-462.6,3343.5c0,471.4,191.4,1502,191.4,1831.9
			c0,329.9-283.1,488.5-283.1,809.4c0,300.2,262.6,281.2,262.6,599.3c0,285.5-262.6,231.6-262.6,437.9
			c0,178.6,247.4,135.6,247.4,324.7c0,129-247.4,137.5-247.4,300.9c0,116.1,239.7,73.1,239.7,193.4"/>
	</g>
</g>
</svg>
