<?xml version="1.0" encoding="utf-8"?>
<!-- Generator: Adobe Illustrator 19.0.0, SVG Export Plug-In . SVG Version: 6.00 Build 0)  -->
<svg version="1.1" id="Layer_2" xmlns="http://www.w3.org/2000/svg" xmlns:xlink="http://www.w3.org/1999/xlink" x="0px" y="0px"
	 viewBox="0 0 171.3 14.3" style="enable-background:new 0 0 171.3 14.3;" xml:space="preserve">
<style type="text/css">
	.st0{fill:#FCF512;}
</style>
<g id="XMLID_1_">
	<path id="XMLID_122_" class="st0" d="M167.9,6.6c0.1-0.1,0-0.3-0.2-0.3l-0.2,0.3L167.9,6.6z"/>
	<path id="XMLID_121_" class="st0" d="M166.3,6c-0.3,0.1-0.6,0.4-0.5,0.7c0.3-0.3,0.4-0.2,0.7-0.5c0.2,0,0.4,0.1,0.4,0.2
		c0.1-0.1,0.4,0.1,0.5-0.1c-0.3-0.3-0.7-0.3-1.1-0.1C166.2,6.1,166.3,6,166.3,6z"/>
	<path id="XMLID_120_" class="st0" d="M143,4.6l0.1,0C143.1,4.6,143.1,4.6,143,4.6z"/>
	<path id="XMLID_119_" class="st0" d="M128.6,3.9c0.1,0,0.2,0,0.2-0.1C128.6,3.9,128.6,3.9,128.6,3.9z"/>
	<path id="XMLID_118_" class="st0" d="M126.1,3.5c0.1,0,0.1,0,0.1,0C126.2,3.5,126.2,3.5,126.1,3.5z"/>
	<path id="XMLID_117_" class="st0" d="M143,4.6l-0.4-0.1C142.6,4.6,142.8,4.5,143,4.6z"/>
	<path id="XMLID_116_" class="st0" d="M163.1,6.6c0.1,0,0.1,0,0.2-0.1L163.1,6.6L163.1,6.6z"/>
	<path id="XMLID_115_" class="st0" d="M149.4,4.5l0.1,0c0,0,0.1-0.1,0.1-0.1L149.4,4.5z"/>
	<path id="XMLID_114_" class="st0" d="M154.3,4.7c-0.1,0-0.2,0.3-0.2,0.4c0.1-0.1,0.2-0.2,0.2-0.2C154.4,4.8,154.3,4.8,154.3,4.7z"
		/>
	<path id="XMLID_113_" class="st0" d="M162,5.5l0.1,0C162.1,5.4,162.1,5.4,162,5.5z"/>
	<path id="XMLID_112_" class="st0" d="M145.9,4.4c0,0,0-0.1,0-0.1C145.9,4.3,145.9,4.3,145.9,4.4z"/>
	<path id="XMLID_111_" class="st0" d="M9.3,9.4C9.3,9.4,9.3,9.4,9.3,9.4C9.2,9.4,9.2,9.4,9.3,9.4z"/>
	<path id="XMLID_110_" class="st0" d="M3.5,8.4L3.5,8.4c0.1-0.1,0.1-0.1,0.1-0.2L3.5,8.4z"/>
	<path id="XMLID_109_" class="st0" d="M121.6,3C121.6,3,121.6,3,121.6,3C121.8,3,121.7,3,121.6,3z"/>
	<path id="XMLID_108_" class="st0" d="M80.1,3c0.5,0.2-0.8,0.3,0,0.6C80,3.5,80.7,3.1,80.1,3z"/>
	<path id="XMLID_107_" class="st0" d="M163,6.6c-0.1,0-0.1,0-0.2,0C162.9,6.6,162.9,6.6,163,6.6z"/>
	<path id="XMLID_106_" class="st0" d="M80,3.6L80,3.6L80,3.6C80.1,3.6,80.1,3.6,80,3.6z"/>
	<path id="XMLID_105_" class="st0" d="M111.2,3c0,0,0.1,0.1,0.1,0.1C111.3,3.1,111.3,3,111.2,3z"/>
	<path id="XMLID_104_" class="st0" d="M118.9,3.5l-0.2,0C118.8,3.5,118.9,3.5,118.9,3.5z"/>
	<path id="XMLID_103_" class="st0" d="M107.2,3.3c-0.1,0-0.1-0.1-0.3,0c0,0,0,0,0,0C107,3.3,107,3.2,107.2,3.3z"/>
	<path id="XMLID_102_" class="st0" d="M103,3.2C103,3.3,103,3.3,103,3.2c0.1,0.1,0.2,0,0.2,0L103,3.2z"/>
	<path id="XMLID_101_" class="st0" d="M22,8.4c-0.1-0.1-0.2-0.2-0.2-0.2C21.8,8.3,21.2,8.4,22,8.4z"/>
	<path id="XMLID_100_" class="st0" d="M163.1,6.5c0,0.1-0.1,0.1-0.1,0.1l0.1,0C163.1,6.5,163.1,6.5,163.1,6.5z"/>
	<path id="XMLID_99_" class="st0" d="M107,5.5l-0.7-0.1C106.5,5.5,106.7,5.5,107,5.5z"/>
	<path id="XMLID_98_" class="st0" d="M52,6.3l-0.2,0C51.9,6.4,51.9,6.3,52,6.3z"/>
	<path id="XMLID_97_" class="st0" d="M104.3,5.5c-0.1-0.1-0.2-0.2-0.4-0.2c0,0-0.1,0-0.1,0.1L104.3,5.5z"/>
	<path id="XMLID_96_" class="st0" d="M21.8,8.1L21.8,8.1L21.8,8.1z"/>
	<path id="XMLID_91_" class="st0" d="M17.4,9.1c0.6,0,0.3-0.4,0.4-0.6c0.7-0.2,0.4,0.2,0.6,0.4c0.5-0.1,0.8-0.5,1.2-0.5
		c0,0.1,0.1,0.1,0,0.2c0.5-0.3,1.5-0.1,2-0.5c0,0,0.1,0.1,0.1,0.1c-0.1-0.2-0.1-0.4-0.1-0.5c0.3,0,0.5-0.3,0.6,0
		c-0.2,0-0.2,0.1-0.3,0.2l0.3-0.1c0.3,0.3-0.4,0.1-0.4,0.4c0.6-0.2,1.2-0.5,1.7-0.4c0.1,0.3-1,0.2-0.4,0.4L22.5,8
		c0.6,0.5-0.4,0,0.1,0.5c0.9,0,1-0.2,1.9-0.2c0.2-0.2-0.1-0.3,0.1-0.5c1.3-0.4,1.1,0.8,2,0.3c0.2-0.2,0.3-0.7,1-0.5L27.4,8
		c0.9,0,0.5-0.6,1.4-0.4c-0.2,0.2-0.7,0.2-0.5,0.2c0.6,0.3,0.4-0.2,0.9-0.3l0.1,0.3c0.9-0.1,1.9-0.4,3-0.6c-0.1,0.1-0.2,0.2,0,0.3
		c1.3-0.3,2.8-0.2,4.1,0l0.5-0.3c0.1,0,0.2,0.1,0.1,0.2c0.5,0.1,0-0.2,0.2-0.3c0.3,0,0.4,0.1,0.2,0.2c0.8-0.3,2.4-0.7,3.4-0.5
		L40.4,7c0.7,0.1,0.8-0.7,1.4-0.4l-0.1,0.1c1.5,0,3.2-0.4,4.4,0c0.2-0.4,1.5,0.1,1.6-0.5c0.9,0.2,0.7,0.4,1.9,0.5
		c0.3,0,0.5-0.4,0.9-0.5l0,0.3l0.5-0.4l0.3,0.4l0.4-0.1c-0.2,0-0.3-0.1-0.3-0.2C52.1,6,53,6.3,53,6.4l1.4-0.3c0,0.1-0.3,0.2-0.4,0.3
		c0.7-0.4,0.2,0.3,0.8,0c-0.1-0.1,0-0.2,0.1-0.2c0.4,0.2,1.1,0.1,1.7,0l-0.1,0.2c1.1,0,2.2-0.2,3.4-0.3c-0.4-0.1-0.3-0.5,0-0.5
		L60,5.9c0.2-0.2-0.4-0.1,0.1-0.4c0.4,0,0.3,0.4,0.1,0.5l0.5-0.1c0,0.1-0.1,0.2-0.1,0.3c0.2-0.2,0.9,0.3,1.2-0.1l0,0.1
		c1.2,0,1.7-0.2,2.7-0.2c0-0.3,0.4-0.2,0.7-0.5c0.7,0.1,1.5,0.3,2.3,0.2c0.6-0.2,0.2-0.2,0.4-0.4c0.1,0.3,0.9,0.2,0.5,0.4
		c1-0.1,1.3-0.1,2.6-0.3c-0.1-0.1-0.3-0.1-0.2-0.2c0.2,0,0.5,0.1,0.5,0.2l-0.1,0c1.4-0.4,3.4,0.6,4.5,0.1l-0.1,0l1.2-0.3
		c0.6,0-0.3,0.2,0.1,0.3c1.3-0.5,2,0,3.1-0.3c0.8,0.7,2.9-0.1,4,0.4L84,5.4c0.3-0.2,0.3,0.1,0.6,0.1c0-0.1-0.3-0.2-0.1-0.3
		c2.4-0.2,5,0.2,7.5,0.4c0.9,0,0.5-0.9,1.7-0.5l-0.3,0.3c1.8-0.4,3.8,0,5.6-0.3c-0.1,0.1-0.1,0.2-0.3,0.2c0.4,0.2,1.4,0,1.4-0.2
		c0.3,0,0.1,0.2,0.2,0.3c0.4,0.1,1-0.3,1.2-0.1c0,0-0.1,0.1-0.2,0.1c0.2-0.1,1.2,0,0.9-0.2c0.7,0.1,1.3-0.1,1.8,0.1
		c0.4-0.3,1.2,0.2,1.3-0.3c-0.1,0.5,1.2,0.4,1.6,0.2c-0.1,0.1,0.4,0.1,0.2,0.3c0.5,0,0.9-0.1,0.9-0.3c0.9,0.6,1.8-0.4,2.3,0.3
		c1.5-0.2,2.8-0.4,4.1-0.4c-0.1,0.4-1.4,0-1.4,0.5c1.2-0.2,2-0.5,3.2-0.4c0.3,0.1-0.2,0.2-0.3,0.3c1.2-0.2,2.4,0.1,3.5-0.1
		c0,0-0.1,0.1-0.2,0.1c0.2,0,0.5,0.1,0.5-0.1l-0.2,0.1c-0.3-0.3,0.9-0.6,0.9-0.8c-0.4,0.6,1.1,0.2,0.5,0.9c0.1,0,0.3-0.1,0.3-0.3
		c0.2,0,0.3,0.1,0.1,0.3c0.8-0.1,0.5-0.3,1.2-0.3c0,0.1-0.1,0.1-0.2,0.2c0.4-0.2,0.7-0.4,1.3-0.3c0,0.1,0,0.1-0.1,0.1
		c1,0,1.8-0.5,2.9-0.3c-0.3,0.4,0.4,0.2,0.4,0.5l0.6-0.1l-0.2-0.2c0.5,0,1-0.2,1.5-0.1L128,5.3l1,0l-0.6-0.2c0.5-0.2,0,0,0.7,0.2
		c-0.1,0,0.5,0.8,0.8,0.8h0c0.3,0,0.5-0.7,0.9-0.6c0.1,0.1-0.1,0.2,0,0.2c0.3-0.3,1.2-0.2,1.6-0.5c-0.1,0.1-0.1,0.2-0.1,0.2l0.2-0.3
		c0.2,0.1,0.3,0.1,0.2,0.3c0.7,0.1-0.2-0.5,0.6-0.3c-0.1,0,0,0.1-0.2,0.1c0.9,0.1,1.7-0.1,2.5,0c0.2,0.4-0.7,0.1-0.4,0.4
		c1.2,0,2.4-0.4,3.5-0.2l-0.2,0c0.2-0.5,0.8,0.3,1.4,0.1c-0.1,0-0.2,0.3-0.2,0.2c0.8,0.1,1.6-0.1,2.8-0.2l-0.1,0.1
		c0.4,0.1,1.2,0.1,1.7,0.2c0.2-0.1,0.4-0.1,0.3-0.3c1.5,0.8,2.9-0.3,4.2,0.4c-0.2,0-0.4,0.1-0.3,0.1l1.1-0.1
		c-0.1-0.2-0.1-0.1-0.4-0.3c0.1-0.1,0.5-0.2,0.8-0.2c-0.5,0.1,0,0.4,0.2,0.5c0-0.1,0-0.1,0-0.2c0.6,0.4,0.1-0.5,0.9-0.2l0,0.1
		c0.3-0.1,0.6-0.2,0.9-0.2c0.1,0.3-0.3,0.1-0.4,0.3c0.5,0,0.9-0.5,1.3-0.2c-0.2,0.1-0.5,0.1-0.7,0.1C152.6,6,152.7,6,153,6l0,0
		l0.8,0.2l-0.2-0.1c0.6-0.7,1.2-0.1,2-0.5c-0.8,0.4-0.1,0.2-0.2,0.5c0.2,0.1,0.5,0.2,0.4,0.3c0.4-0.2,0.6,0.2,1.1-0.1
		c0,0.1,0.4,0,0.3,0.3c0.5-0.1-0.1-0.2-0.1-0.3c0.7-0.3,1.7,0.5,2.8,0.1c0.9-0.2,1.1-0.5,2-0.6c0.3,0.2-0.2,0.3-0.2,0.3
		c0.5,0.2,0.8,0.1,1.2,0.1c-0.1,0.1,0,0.2,0.1,0.3c0.4,0,0.2-0.3,0.7-0.2c-0.1,0.1-0.2,0.3-0.4,0.4c0.4-0.1,0.8-0.2,1.3-0.3
		c0.1,0.2-0.3,0.2-0.4,0.4c0.5-0.1,1.2-0.1,1.4-0.4l-0.3-0.1c0.2,0,0.1,0.2,0,0.3c-0.4,0.2-0.6-0.1-0.6-0.2l0.3-0.1
		c-0.3-0.6-1.2,0-1.8,0l0.3-0.4L162.7,6c-0.1-0.1-0.2-0.3,0.1-0.4c-0.4-0.2-0.4,0.1-0.8-0.1c0,0,0-0.1,0-0.1l-0.4,0.1
		c0.1-0.1-0.1-0.3,0.2-0.2c-0.8-0.3-1.3,0.3-1.5-0.1l0.1,0c-1.1,0.1-0.1,0.3-0.9,0.6l-0.5-0.8l-0.1,0.3c-0.1,0-0.3,0-0.3-0.2
		c-0.4,0.2,0.1,0.1-0.2,0.3c-0.5-0.3-1.5,0.1-1.6-0.4c-0.2,0.2,0.5,0.2-0.1,0.3c-0.1-0.5-0.7,0.1-1.1-0.2c0.2-0.3,0.6-0.1,0.1-0.4
		c-0.3,0.4-0.9-0.1-1.3-0.1c0,0.4-0.9,0.1-1.6,0.2c0-0.1-1.3-0.2-1.9-0.4l0-0.1c-0.1,0.4-0.8,0.3-1.3,0.3c0-0.2,0.1-0.3,0.4-0.4
		l-0.4,0c-0.1,0.1-0.3,0.2-0.5,0.2l0.1-0.3c-0.6,0-1.2,0.3-2,0.1c-0.1,0.3,0.6,0.7-0.2,0.9c0-0.1,0-0.4,0.2-0.4
		c-0.1,0-0.3,0.1-0.4,0l0.3-0.2c-0.3-0.1-0.2,0.2-0.5,0.2c0-0.2-0.2-0.1-0.2-0.3c0.1,0,0.2,0.1,0.4,0c-0.3,0-0.7-0.2-0.8-0.3
		c0,0.1,0,0.3-0.2,0.3c-0.6,0-0.2-0.2-0.5-0.4c-0.1,0.1-0.5,0-0.5,0.3c-0.2,0-0.2-0.1-0.3-0.2c-0.3,0.1-1.4,0-1.1,0.3l0.1,0.7
		c0,0,0,0.7-0.1,0.7h0h0c-1,0-2.1-0.9-3.1-0.8l0-0.4c-0.6,0.1-1.3-0.2-1.8,0c-0.2,0-0.4-0.3-0.3-0.4c-0.5,0.1-0.5,0.1-1.2-0.1
		c0.5-0.2-0.2-0.2,0.5-0.1c-0.6-0.1-0.7-0.3-1.4,0c0.2-0.2-0.4-0.3-0.7-0.3l0.4,0.2c-0.3,0-0.6,0-0.9,0l0.2-0.3
		c-1.2-0.4-2.2,0.6-3.1-0.1c-0.3,0.2,0.7,0.2,0.4,0.4c-0.6-0.1-1.1-0.6-1.3-0.6c-0.8-0.2-0.7,0.5-1.5,0.3c0.1,0.1,0.2,0.4-0.4,0.5
		c-0.6-0.1-0.7-0.5-0.3-0.6c0.1,0,0.2,0,0.2,0.1c0.2,0,0.4-0.1,0.2-0.2l-0.1,0.1c-0.3-0.1-1.1-0.1-0.9-0.3c-0.4,0.1-0.2,0.2,0.1,0.3
		c-0.7-0.2-1.1,0-1.9-0.2c0.1,0.1,0.2,0.2,0.1,0.2c-1.1-0.2-0.5,0.2-1.2,0.2c-0.4-0.2,0.2-0.4-0.6-0.3c-0.5-0.1-0.1-0.3,0.1-0.4
		C124,3.5,123.4,3.1,123,3l0.4-0.1c-0.2,0.1-0.4,0-0.6,0l0.2,0.2c-0.2,0-0.4-0.1-0.4-0.2c-0.2,0.1,0.2,0.4-0.3,0.6
		c-0.3-0.1-0.9,0.1-0.9-0.2c0.9,0.1-0.1-0.3,0.7-0.3c-0.1,0-0.3,0-0.5,0c0,0,0-0.1,0.1-0.1c-0.8-0.3-0.4,0.3-1.3,0.3
		c0.1-0.2-0.2-0.3-0.3-0.3c0.4,0,0.2,0.3-0.2,0.4c-0.6-0.1-0.6,0.1-0.9,0.1l0.3,0.1c-0.1,0.2-0.4,0.1-0.8,0.2c0-0.1,0.4-0.1,0.2-0.2
		c-0.4,0.3-1-0.3-1.6-0.1c-0.3-0.1,0-0.3-0.3-0.4c-0.7,0.2-0.7-0.3-1.4-0.1c0.2,0.2,0.2,0.2-0.3,0.4l1.2-0.1l-0.8,0.3
		c0.4,0,0.7-0.1,1-0.1c-0.4,0.2-0.3,0.1-0.2,0.3c-0.5-0.4-1,0.2-1.5-0.1l0-0.6c-0.8-0.3-1.5,0.3-2.6,0.1l0.3,0.1
		c-0.2,0.2-0.7,0-1,0.1c0-0.2-0.2-0.3-0.3-0.4c0,0.1-0.8,0-0.9,0.4l-0.5-0.3c-0.9-0.1-1,0.5-1.9,0.5c0.3-0.2-0.1-0.4,0.4-0.5
		c-0.3,0-0.5,0-0.5,0.1c-0.2-0.1-0.8,0.3-1,0.1c-0.1,0.1-0.2,0.3-0.5,0.3c0,0,0-0.1,0-0.1c0,0.1-0.5,0.1-0.2,0.3
		c-0.9-0.6-2.4,0-3.2-0.5c-0.6,0.1-1.4,0.1-1.9,0.1c0-0.1,0-0.1,0.1-0.1c-0.8-0.2-0.5,0.6-1.4,0.4c-0.4-0.3,0.5-0.2,0.2-0.3
		c-0.1-0.7-1.1,0.1-1.6-0.3l0.1,0c-0.5-0.2-1.1,0.2-1.8,0.2c0,0,0-0.1,0-0.1c-0.5,0.3-1.5,0.4-2.2,0.5c0.2-0.3,0.3-0.1,0.2-0.4
		c-0.3,0,0.1,0.4-0.5,0.5c-0.2-0.1-0.7-0.3-0.7-0.5l0.6,0c-0.3-0.4-0.8,0-1.1,0L93,3c-0.9,0.1-0.9,0.4-1.9,0.4l0.1,0.1
		c-0.5,0.4-0.5-0.2-1,0.1l-0.2-0.4c-0.4,0.1-1.2,0.4-1.9,0.5c0.4-0.3,1.1-0.5,1.6-0.6c-0.4,0-1.2,0-1.4,0.2c0.1,0,0.3-0.1,0.5-0.1
		c-0.4,0.3-1,0.5-1.7,0.5C87.2,3,85.3,3.6,84.8,3c-1.2,0.3-2.5-0.1-3.9,0c0.5,0.6-0.4,0-0.3,0.6c-0.3,0-0.5,0-0.5,0l-1-0.3
		c-0.2-0.2,0.3-0.1,0.3-0.3c-0.7,0-0.3-0.3-0.8-0.4c0.1,0.2-0.3,0.3-0.7,0.2l0.6,0.3c-1,0.3-0.9-0.5-1.9-0.2l0.3-0.2
		c-0.5,0.1-2,0-2.5,0.5c-0.1-0.1-0.2-0.2,0-0.3c-1.3,0-2.8,0.6-3.8,0.3l0.1-0.2c-0.2,0.1-0.4,0.3-0.7,0.2c0-0.1,0.1-0.2,0-0.2
		c-0.1,0.1-0.6,0.3-0.9,0.2l0.3-0.2c-1.3-0.2-1.9,0.5-2.9,0.6c0-0.4-1-0.5-1.5-0.6l0-0.1c-1.5,0-2.4,0.5-3.8,0.7
		c-0.9-0.4-2.8-0.1-4.2-0.3c0.2,0.1,0,0.3-0.3,0.4c-0.3-0.1-0.9,0.4-0.8-0.1l0.1,0c-0.3-0.4-0.9-0.2-1.4-0.2l-0.1,0.5
		C53,3.5,50.2,4.6,49.5,4c-0.3,0.1-0.8,0.2-1.8,0.3V4c0,0-0.6,0-1.7,0.1l0.6-0.2c-0.6,0-0.5,0.9-1.1,0.9l-0.1-0.4
		c-1.1,0.1-2.1-0.2-3.2,0.2c0-0.1,0.1-0.2,0.2-0.2c-0.5,0-2-0.2-1.7,0.4c0-0.4-1.1,0-1.7,0.2l0.1-0.3c-0.5,0.4-0.5,0.5-1.1,0.6
		c-0.2,0-0.2-0.2,0.1-0.2c-0.5-0.1-0.4,0.3-1.1,0.2l0.2-0.2c-0.6,0-0.5,0.1-0.8,0.3c-0.3,0.1-1.1,0-1.2-0.2
		c-0.1,0.2-0.4,0.4-0.7,0.3c-0.1-0.1,0.1-0.2,0.1-0.2c-0.9-0.1-1.4,0.4-2,0.2c0-0.1-0.1-0.1-0.1-0.2c0.7,0,1.3-0.1,1.3,0
		c0-0.3-0.6-0.3-0.2-0.6c-0.5,0.2-1.2,0.7-1.8,0.6c0,0-0.1,0-0.1-0.1l0.1,0c-0.1,0-0.3,0-0.4,0.1c-0.2,0-0.3-0.1-0.5,0
		c-0.1-0.2-0.7-0.1-1-0.1c0,0.3-0.3,0.3,0,0.5c0,0,0.1,0,0.2-0.1c0,0,0.1,0,0.1,0l0,0c0.2,0,0.4,0,0.7-0.1c-0.2,0.2-0.5,0.3-0.8,0.2
		C30.2,6,30.1,6.2,30,6.3c-0.4-0.4-1.2-0.5-1.4-0.8c-0.9,0.2-2.1,0.3-2.7,0.8c-0.3,0.1-0.3-0.1-0.4-0.2C25.7,6.1,25.9,6.1,26,6
		c-0.5,0.2-1.5,0.2-1.6,0.5c-0.7-0.1,0.3-0.4-0.5-0.2l0.1-0.1c-1.8-0.5-2.8,1.1-4.8,0.5c0.1,0,0.2,0.1,0.2,0.1
		c-2.2-0.2-4.5,0.6-6.7,0.3c-0.6-0.1-0.7,0.2-1,0.4l-0.2-0.3l-0.6,0.4C9.9,7.9,9.2,7,8,7.5l0.2,0.2c-0.4,0-1.3,0.2-1.3,0
		c0,0-0.1,0.2-0.3,0.1l0-0.2L5.6,8C4.8,7.9,5.7,7.4,4.5,7.4C4.1,7.5,3.3,8,3.5,8.1C3.7,8.1,4,8.1,4,8.3L3.6,8.4c0,0.5-0.3,1,0.7,1.2
		l0.7-0.3l0.2,0.2L4.6,9.5c0.3,0.2,0.5,0,0.7-0.2c0.1,0.1,0.2,0.2,0.3,0.2l0.6-0.5C6.4,9.3,6,9.5,6.4,9.6C6.7,9.3,6.1,9.2,6.6,9
		C7,9.2,6.9,9.4,7.2,9.2c0.1,0.1,0,0.2-0.2,0.3c0.3-0.2,0.9-0.1,1-0.4c0.4,0.2,1.1-0.1,1.1,0.3C9.4,9.2,9.8,9,10.1,8.9
		c-0.5,0.6,1.2-0.1,1,0.5c0.4-0.5,1.5-0.3,2.2-0.6c0,0-0.1,0.1-0.2,0.1c0.4,0,0.6,0.1,0.8,0.2c0-0.4,0.7-0.5,1-0.8
		c0.5,0.3-0.3,0.5-0.1,0.8c0-0.3,0.9-0.4,0.7-0.6C16,8.7,16,8.6,16.2,8.9c0-0.5,0.4-0.1,0.7-0.4C17.4,8.7,17,9,17.7,8.8
		C18,8.9,17.4,9.1,17.4,9.1z M32.2,7.2L32.2,7.2c-0.1,0-0.2,0-0.3,0C31.9,7.3,32,7.2,32.2,7.2z M33.4,7.1c-0.2,0-0.3,0-0.5,0
		C32.8,7.1,32.8,7,33,7C32.9,7,33.2,7.1,33.4,7.1z M30.6,5.4c0.2-0.1,0.3,0,0.3,0.1c-0.1,0-0.2,0-0.3,0.1l0,0
		C30.6,5.5,30.6,5.4,30.6,5.4z"/>
	<path id="XMLID_90_" class="st0" d="M30.3,5.8C30.3,5.8,30.3,5.8,30.3,5.8C30.3,5.8,30.3,5.8,30.3,5.8l0.1,0
		C30.4,5.8,30.3,5.8,30.3,5.8z"/>
	<path id="XMLID_89_" class="st0" d="M143.2,4.6L143.2,4.6C143.2,4.6,143.2,4.6,143.2,4.6C143.2,4.6,143.2,4.6,143.2,4.6z"/>
	<polygon id="XMLID_88_" class="st0" points="50.6,6.5 50.6,6.4 50.5,6.5 	"/>
	<path id="XMLID_87_" class="st0" d="M150,5.8C150,5.9,150.1,5.9,150,5.8C150.1,5.9,150.1,5.9,150,5.8z"/>
	<path id="XMLID_86_" class="st0" d="M153,6l0.4,0.1C153.2,6.1,153.1,6,153,6z"/>
	<path id="XMLID_85_" class="st0" d="M155.3,6.2c0,0,0-0.1,0-0.1l0,0L155.3,6.2z"/>
	<path id="XMLID_84_" class="st0" d="M119.1,5.4C119,5.4,119,5.4,119.1,5.4C118.8,5.5,118.9,5.4,119.1,5.4z"/>
	<path id="XMLID_83_" class="st0" d="M129.8,5c-0.1,0-0.2,0.1-0.4,0.1C129.7,5.2,129.8,5.2,129.8,5z"/>
	<polygon id="XMLID_82_" class="st0" points="107,5.5 107,5.5 107,5.5 	"/>
	<path id="XMLID_81_" class="st0" d="M129,5.1c0.2,0.1,0.4,0.1,0.5,0C129.3,5.1,129.2,5.1,129,5.1z"/>
	<path id="XMLID_80_" class="st0" d="M165.1,6.7l0.1,0c0,0,0,0,0,0L165.1,6.7z"/>
	<path id="XMLID_79_" class="st0" d="M165.2,6.7l0.1,0C165.3,6.7,165.3,6.7,165.2,6.7z"/>
	<path id="XMLID_78_" class="st0" d="M165.6,6.6l-0.3,0.1C165.5,6.7,165.6,6.7,165.6,6.6z"/>
	<path id="XMLID_77_" class="st0" d="M162.1,6.5l0,0.1C162.1,6.6,162.1,6.5,162.1,6.5z"/>
	<path id="XMLID_76_" class="st0" d="M161.2,6.5c0.2,0,0.5,0.2,0.8,0.2l0-0.1C161.9,6.7,161.4,6.3,161.2,6.5z"/>
	<path id="XMLID_75_" class="st0" d="M157.4,5.1l0.8,0.1c-0.1-0.1-0.3-0.3,0-0.3C157.3,4.6,158.4,5.2,157.4,5.1z"/>
	<path id="XMLID_74_" class="st0" d="M155,4.8c0.4,0,0-0.2,0-0.2C154.8,4.7,154.7,4.7,155,4.8z"/>
	<path id="XMLID_73_" class="st0" d="M137.8,4.2l0.1-0.3C137.6,4,137.9,4.1,137.8,4.2z"/>
	<polygon id="XMLID_69_" class="st0" points="134.5,5.4 134.8,5.6 135,5.4 	"/>
	<polygon id="XMLID_68_" class="st0" points="132.6,3.6 132.8,3.5 132.2,3.6 	"/>
	<path id="XMLID_67_" class="st0" d="M103.7,3l0.1,0.3C104,3.3,104.1,2.9,103.7,3z"/>
	<path id="XMLID_66_" class="st0" d="M91.2,3.3c-0.1-0.2-0.5-0.3-0.7-0.1C90.8,3.2,91.1,3.3,91.2,3.3z"/>
	<polygon id="XMLID_65_" class="st0" points="53.7,3.8 54,3.7 53.5,3.8 	"/>
</g>
</svg>
