<?xml version="1.0" encoding="utf-8"?>
<!-- Generator: Adobe Illustrator 19.0.0, SVG Export Plug-In . SVG Version: 6.00 Build 0)  -->
<svg version="1.1" id="Layer_1" xmlns="http://www.w3.org/2000/svg" xmlns:xlink="http://www.w3.org/1999/xlink" x="0px" y="0px"
	 viewBox="0 0 500 500" style="enable-background:new 0 0 500 500;" xml:space="preserve">
<style type="text/css">
	.st0{stroke:#000000;stroke-width:2;stroke-miterlimit:10;}
</style>
<g id="XMLID_16_">
	<path id="XMLID_17_" class="st0" d="M189.5,422.2c-5.5,0-10.9-0.1-16.2-0.3c-33.2-1.1-60.4-4.8-83.1-11.2
		c-28.6-8.1-50.5-20.8-64.9-37.9c-19-22.4-26-53.1-20.8-91.3c3.7-27,16.9-53,39.5-77.2c19.5-21,46-40.6,78.6-58.4
		c61-33.3,130.8-53.1,175.8-60.5c46.4-7.7,91.9-2.4,127.9,15c37.8,18.2,62,48.7,68.2,85.8c7.4,44.7,3.2,85.2-12.6,120.4
		c-13,29.1-31.3,48.5-44.4,59.7c-20.1,17.2-61.3,32.5-116,43.1C278.6,417.6,230.5,422.2,189.5,422.2z M339.7,83
		c-13.4,0-27.2,1.1-41,3.4c-44.9,7.4-114.6,27.2-175.5,60.4C74.2,173.5,14.1,218.6,5.5,281.7c-5.1,37.9,1.8,68.3,20.6,90.5
		c25.7,30.4,73.8,46.3,147.2,48.7c44,1.5,99.3-3.3,148-12.7c54.5-10.6,95.5-25.8,115.5-42.8c13-11.1,31.2-30.3,44.1-59.3
		c15.7-35,19.9-75.3,12.5-119.8c-6.1-36.8-30.1-67-67.6-85C400.8,89.2,371.1,83,339.7,83z"/>
</g>
</svg>
