<?xml version="1.0" encoding="utf-8"?>
<!-- Generator: Adobe Illustrator 19.0.0, SVG Export Plug-In . SVG Version: 6.00 Build 0)  -->
<svg version="1.1" id="Layer_1" xmlns="http://www.w3.org/2000/svg" xmlns:xlink="http://www.w3.org/1999/xlink" x="0px" y="0px"
	 viewBox="0 0 500 125.6" style="enable-background:new 0 0 500 125.6;" xml:space="preserve">
<style type="text/css">
	.st0{fill:#231F20;}
</style>
<g>
	<g id="XMLID_10_">
		<path id="XMLID_23_" class="st0" d="M55.5,83.6V5.1H29.6c0,0-14.5,11.2-29.6,14.7c0,0,0,31.1,0,31.3c7.3,0,18.3-3.5,18.3-3.5
			l0.1,36.1h-17v36.4h64.8V83.6H55.5z"/>
	</g>
	<g>
		<path class="st0" d="M146,109.4c-5.1,5.5-13.8,11.1-27.8,11.1c-14,0-22.7-5.6-27.8-11.1c-7.2-7.9-9.5-16.1-9.5-33.1
			c0-16.9,2.3-25.2,9.5-33.1c5.1-5.5,13.8-11.1,27.8-11.1c14,0,22.7,5.6,27.8,11.1c7.2,7.9,9.5,16.2,9.5,33.1
			C155.5,93.3,153.2,101.5,146,109.4z M125.3,58.3c-1.6-1.6-3.9-2.4-7.1-2.4c-3.2,0-5.5,0.8-7.1,2.4c-3.4,3.4-3.9,9.5-3.9,18
			s0.5,14.6,3.9,18c1.6,1.6,3.9,2.4,7.1,2.4c3.2,0,5.5-0.8,7.1-2.4c3.4-3.4,3.9-9.5,3.9-18S128.6,61.7,125.3,58.3z"/>
		<path class="st0" d="M216.8,119.5v-7.1c-5.3,5.3-13.2,8-20.1,8c-8.2,0-14.8-2.7-19.4-7.4c-7.4-7.4-8.7-15.6-8.7-24.8V33.1h26.4
			v51.8c0,10,7.1,11.9,10.6,11.9c3.5,0,10.6-1.9,10.6-11.9V33.1h26.4v86.5H216.8z"/>
		<path class="st0" d="M305,119.5v-7.1c-5.3,5.3-10.9,8-19.9,8c-8.4,0-16.1-2.9-21.1-7.9c-8.5-8.5-8-23.6-8-36.3
			c0-12.7-0.5-27.8,8-36.3c5-5,12.5-7.9,20.9-7.9c8.5,0,14.5,2.4,19.3,7.2V5.1h26.4v114.4H305z M293.3,55.9
			c-9.8,0-10.9,7.9-10.9,20.4c0,12.5,1.1,20.4,10.9,20.4c9.8,0,10.9-7.9,10.9-20.4C304.2,63.8,303.1,55.9,293.3,55.9z"/>
		<path class="st0" d="M368.8,84.8c0,7.1,5.5,13.5,15.3,13.5c9.2,0,13.2-2.6,17.8-7.2l15.8,15.8c-8.8,8.8-17.5,13.7-33.6,13.7
			c-19.1,0-41.1-6.9-41.1-44.2c0-28.3,16.1-44.2,38.7-44.2c25.1,0,38.9,18.3,38.9,41v11.7H368.8z M393.1,60.5
			c-1.6-3.7-5.1-6.8-11.4-6.8s-9.8,3.1-11.4,6.8c-1.1,2.2-1.4,4.7-1.4,6.8h25.7C394.5,65.2,394.2,62.8,393.1,60.5z"/>
		<path class="st0" d="M480.1,60.4c-2.6-2.6-5-4.5-9.5-4.5C467,55.9,460,58,460,67.8v51.8h-26.4V33.1h25.7v7.1
			c3.9-3.9,11.4-8,20.4-8c8.5,0,14.3,2.1,20.3,8L480.1,60.4z"/>
	</g>
</g>
</svg>
