<svg id="Layer_1" data-name="Layer 1" xmlns="http://www.w3.org/2000/svg" viewBox="0 0 700 700"><defs><style>.cls-1,.cls-2{fill:none;stroke-miterlimit:10;}.cls-1{stroke:#333;}.cls-2{stroke:#ccc;}</style></defs><path class="cls-1" d="M358.5,350a8.5,8.5,0,1,0-2.49,6,8.52,8.52,0,0,0,2.49-6"/><path class="cls-2" d="M359.5,350a9.49,9.49,0,1,0-2.78,6.72A9.57,9.57,0,0,0,359.5,350"/><path d="M350,342a8,8,0,1,1-8,8,8,8,0,0,1,8-8m0-1a9,9,0,1,0,9,9,9,9,0,0,0-9-9Z"/><path class="cls-1" d="M374.55,350a24.59,24.59,0,1,0-1.87,9.39,24.54,24.54,0,0,0,1.87-9.39"/><path class="cls-2" d="M375.55,350a25.53,25.53,0,1,0-1.95,9.78,25.44,25.44,0,0,0,1.95-9.78"/><path d="M350,326a24,24,0,1,1-9.38,1.9A24,24,0,0,1,350,326m0-1A25.05,25.05,0,1,0,375.05,350,25.06,25.06,0,0,0,350,325Z"/><path class="cls-1" d="M390.6,350a40.59,40.59,0,1,0-3.09,15.54A40.61,40.61,0,0,0,390.6,350"/><path class="cls-2" d="M391.6,350a41.58,41.58,0,1,0-3.17,15.92A41.6,41.6,0,0,0,391.6,350"/><path d="M350,309.9a40,40,0,1,1-15.62,3.16A39.91,39.91,0,0,1,350,309.9m0-1A41.1,41.1,0,1,0,391.1,350,41.1,41.1,0,0,0,350,308.9Z"/><path class="cls-1" d="M406.64,350a56.48,56.48,0,1,0-4.3,21.68,56.76,56.76,0,0,0,4.3-21.68"/><path class="cls-2" d="M407.64,350a57.57,57.57,0,1,0-4.38,22.06A57.75,57.75,0,0,0,407.64,350"/><path d="M350,293.86a55.72,55.72,0,0,1,21.85,4.41A56.1,56.1,0,0,1,406.14,350a55.72,55.72,0,0,1-4.41,21.85A56.1,56.1,0,0,1,350,406.14a55.72,55.72,0,0,1-21.85-4.41A56.1,56.1,0,0,1,293.86,350a55.72,55.72,0,0,1,4.41-21.85A56.1,56.1,0,0,1,350,293.86m0-1A57.14,57.14,0,1,0,407.14,350,57.14,57.14,0,0,0,350,292.86Z"/><path class="cls-1" d="M422.69,350a72.65,72.65,0,1,0-5.53,27.82A72.74,72.74,0,0,0,422.69,350"/><path class="cls-2" d="M423.69,350a73.62,73.62,0,1,0-5.6,28.2,73.73,73.73,0,0,0,5.6-28.2"/><path d="M350,277.81a71.94,71.94,0,1,1-28.11,5.68A71.83,71.83,0,0,1,350,277.81m0-1A73.19,73.19,0,1,0,423.19,350,73.19,73.19,0,0,0,350,276.81Z"/><path class="cls-1" d="M438.74,350A88.69,88.69,0,1,0,432,384a88.72,88.72,0,0,0,6.75-34"/><path class="cls-2" d="M439.74,350a89.68,89.68,0,1,0-6.83,34.34A89.72,89.72,0,0,0,439.74,350"/><path d="M350,261.76a87.92,87.92,0,1,1-34.36,6.94A87.6,87.6,0,0,1,350,261.76m0-1A89.24,89.24,0,1,0,439.24,350,89.25,89.25,0,0,0,350,260.76Z"/><path class="cls-1" d="M454.79,350a104.65,104.65,0,1,0-8,40.1,105.07,105.07,0,0,0,8-40.1"/><path class="cls-2" d="M455.79,350a105.69,105.69,0,1,0-8.05,40.49A106,106,0,0,0,455.79,350"/><path d="M350,245.71a104.06,104.06,0,1,1-40.6,8.21,103.59,103.59,0,0,1,40.6-8.21m0-1A105.29,105.29,0,1,0,455.29,350,105.29,105.29,0,0,0,350,244.71Z"/><path class="cls-1" d="M470.83,350a120.63,120.63,0,1,0-9.18,46.24A120.81,120.81,0,0,0,470.83,350"/><path class="cls-2" d="M471.83,350a121.67,121.67,0,1,0-9.26,46.63A121.89,121.89,0,0,0,471.83,350"/><path d="M350,229.67a119.93,119.93,0,1,1-46.85,9.46A119.73,119.73,0,0,1,350,229.67m0-1A121.33,121.33,0,1,0,471.33,350,121.33,121.33,0,0,0,350,228.67Z"/><path class="cls-1" d="M486.88,350a136.75,136.75,0,1,0-10.41,52.39A136.88,136.88,0,0,0,486.88,350"/><path class="cls-2" d="M487.88,350a137.72,137.72,0,1,0-10.48,52.77A138.06,138.06,0,0,0,487.88,350"/><path d="M350,213.62a135.91,135.91,0,1,1-53.1,10.72A135.46,135.46,0,0,1,350,213.62m0-1A137.38,137.38,0,1,0,487.38,350,137.38,137.38,0,0,0,350,212.62Z"/><path class="cls-1" d="M502.93,350a152.8,152.8,0,1,0-11.63,58.53A153,153,0,0,0,502.93,350"/><path class="cls-2" d="M503.93,350a153.67,153.67,0,1,0-11.7,58.91A154.22,154.22,0,0,0,503.93,350"/><path d="M350,197.57a152.05,152.05,0,1,1-59.34,12,151.49,151.49,0,0,1,59.34-12m0-1A153.43,153.43,0,1,0,503.43,350,153.43,153.43,0,0,0,350,196.57Z"/><path class="cls-1" d="M519,350a168.75,168.75,0,1,0-12.85,64.67A169.21,169.21,0,0,0,519,350"/><path class="cls-2" d="M520,350a169.84,169.84,0,1,0-12.93,65.05A170.21,170.21,0,0,0,520,350"/><path d="M350,181.52a168,168,0,1,1-65.59,13.25A167.61,167.61,0,0,1,350,181.52m0-1A169.48,169.48,0,1,0,519.48,350,169.48,169.48,0,0,0,350,180.52Z"/><path class="cls-1" d="M535,350A184.74,184.74,0,1,0,521,420.81,185.18,185.18,0,0,0,535,350"/><path class="cls-2" d="M536,350a185.82,185.82,0,1,0-14.14,71.19A186,186,0,0,0,536,350"/><path d="M350,165.48A184,184,0,1,1,278.17,180,183.28,183.28,0,0,1,350,165.48m0-1c-102.46,0-185.52,83.06-185.52,185.52S247.54,535.52,350,535.52,535.52,452.46,535.52,350,452.46,164.48,350,164.48Z"/><path class="cls-1" d="M551.07,350A200.79,200.79,0,1,0,535.79,427,201.3,201.3,0,0,0,551.07,350"/><path class="cls-2" d="M552.07,350a201.82,201.82,0,1,0-15.36,77.34A202.42,202.42,0,0,0,552.07,350"/><path d="M350,149.43a199.84,199.84,0,1,1-78.08,15.76A199.35,199.35,0,0,1,350,149.43m0-1c-111.32,0-201.57,90.25-201.57,201.57S238.68,551.57,350,551.57,551.57,461.32,551.57,350,461.32,148.43,350,148.43Z"/><path class="cls-1" d="M567.12,350a216.9,216.9,0,1,0-16.51,83.1A217.38,217.38,0,0,0,567.12,350"/><path class="cls-2" d="M568.12,350a217.78,217.78,0,1,0-16.58,83.48A218.32,218.32,0,0,0,568.12,350"/><path d="M350,133.38a216,216,0,1,1-84.32,17,215.33,215.33,0,0,1,84.32-17m0-1c-120.19,0-217.62,97.43-217.62,217.62S229.81,567.62,350,567.62,567.62,470.19,567.62,350,470.19,132.38,350,132.38Z"/><path class="cls-1" d="M583.17,350a232.86,232.86,0,1,0-17.73,89.24A233.31,233.31,0,0,0,583.17,350"/><path class="cls-2" d="M584.17,350a233.83,233.83,0,1,0-17.8,89.62A234.49,234.49,0,0,0,584.17,350"/><path d="M350,117.33a232,232,0,1,1-90.57,18.29A231.15,231.15,0,0,1,350,117.33m0-1C221,116.33,116.33,221,116.33,350S221,583.67,350,583.67,583.67,479.05,583.67,350,479.05,116.33,350,116.33Z"/><path class="cls-1" d="M599.21,350a248.84,248.84,0,1,0-18.94,95.38A249.47,249.47,0,0,0,599.21,350"/><path class="cls-2" d="M600.21,350a249.92,249.92,0,1,0-19,95.76,250.46,250.46,0,0,0,19-95.76"/><path d="M350,101.29a247.83,247.83,0,1,1-96.82,19.54A247.25,247.25,0,0,1,350,101.29m0-1c-137.91,0-249.71,111.8-249.71,249.71S212.09,599.71,350,599.71,599.71,487.91,599.71,350,487.91,100.29,350,100.29Z"/><path class="cls-1" d="M615.26,350A264.89,264.89,0,1,0,595.1,451.52,265.63,265.63,0,0,0,615.26,350"/><path class="cls-2" d="M616.26,350A266,266,0,1,0,596,451.9,266.44,266.44,0,0,0,616.26,350"/><path d="M350,85.24a264,264,0,1,1-103.06,20.81A263.19,263.19,0,0,1,350,85.24m0-1c-146.78,0-265.76,119-265.76,265.76S203.22,615.76,350,615.76,615.76,496.78,615.76,350,496.78,84.24,350,84.24Z"/><path class="cls-1" d="M631.31,350a280.94,280.94,0,1,0-21.38,107.66A281.61,281.61,0,0,0,631.31,350"/><path class="cls-2" d="M632.31,350a281.88,281.88,0,1,0-21.46,108.05,282.69,282.69,0,0,0,21.46-108"/><path d="M350,69.19a280.81,280.81,0,1,1,0,561.62,280.81,280.81,0,1,1,0-561.62m0-1C194.36,68.19,68.19,194.36,68.19,350S194.36,631.81,350,631.81,631.81,505.64,631.81,350,505.64,68.19,350,68.19Z"/><path class="cls-1" d="M647.36,350a297,297,0,1,0-22.61,113.8A297.78,297.78,0,0,0,647.36,350"/><path class="cls-2" d="M648.36,350a297.93,297.93,0,1,0-22.68,114.19A298.85,298.85,0,0,0,648.36,350"/><path d="M350,53.14A296.94,296.94,0,0,1,465.55,623.53,296.94,296.94,0,0,1,234.45,76.47,295,295,0,0,1,350,53.14m0-1C185.5,52.14,52.14,185.5,52.14,350S185.5,647.86,350,647.86,647.86,514.5,647.86,350,514.5,52.14,350,52.14Z"/><path class="cls-1" d="M663.4,350a312.94,312.94,0,1,0-23.82,120A313.64,313.64,0,0,0,663.4,350"/><path class="cls-2" d="M664.4,350a313.91,313.91,0,1,0-23.89,120.33A314.82,314.82,0,0,0,664.4,350"/><path d="M350,37.1A313,313,0,0,1,471.8,638.31,313,313,0,0,1,228.2,61.69,310.88,310.88,0,0,1,350,37.1m0-1C176.64,36.1,36.1,176.64,36.1,350S176.64,663.9,350,663.9,663.9,523.36,663.9,350,523.36,36.1,350,36.1Z"/><path class="cls-1" d="M679.45,350a329,329,0,1,0-25,126.09,329.81,329.81,0,0,0,25-126.09"/><path class="cls-2" d="M680.45,350a330.07,330.07,0,1,0-25.12,126.47A330.58,330.58,0,0,0,680.45,350"/><path d="M350,21.05A329,329,0,0,1,478,653.1,329,329,0,0,1,222,46.9,326.91,326.91,0,0,1,350,21.05m0-1c-182.23,0-329.95,147.72-329.95,330S167.77,680,350,680,680,532.23,680,350,532.23,20.05,350,20.05Z"/><path class="cls-1" d="M695.5,350a345,345,0,1,0-26.26,132.23A345.93,345.93,0,0,0,695.5,350"/><path class="cls-2" d="M696.5,350a346,346,0,1,0-26.34,132.61A346.93,346.93,0,0,0,696.5,350"/><path d="M350,5A345.09,345.09,0,0,1,484.29,667.89,345.09,345.09,0,0,1,215.71,32.11,342.81,342.81,0,0,1,350,5m0-1C158.91,4,4,158.91,4,350S158.91,696,350,696,696,541.09,696,350,541.09,4,350,4Z"/></svg>