<?xml version="1.0" encoding="utf-8"?>
<!-- Generator: Adobe Illustrator 19.0.0, SVG Export Plug-In . SVG Version: 6.00 Build 0)  -->
<svg version="1.1" id="Layer_1" xmlns="http://www.w3.org/2000/svg" xmlns:xlink="http://www.w3.org/1999/xlink" x="0px" y="0px"
	 viewBox="0 0 787.9 700.9" style="enable-background:new 0 0 787.9 700.9;" xml:space="preserve">
<style type="text/css">
	.st0{fill:none;stroke:#000000;stroke-width:2;stroke-linecap:round;stroke-miterlimit:10;}
</style>
<g>
	<g>
		<g>
			<line class="st0" x1="578.1" y1="317.5" x2="483" y2="55.6"/>
			<line class="st0" x1="570.9" y1="317.5" x2="475.7" y2="55.6"/>
			<line class="st0" x1="563.7" y1="317.5" x2="468.5" y2="55.6"/>
			<line class="st0" x1="556.4" y1="317.5" x2="461.3" y2="55.6"/>
			<line class="st0" x1="549.2" y1="317.5" x2="454" y2="55.6"/>
		</g>
		<g>
			<line class="st0" x1="541.9" y1="317.5" x2="446.8" y2="55.6"/>
			<line class="st0" x1="534.7" y1="317.5" x2="439.5" y2="55.6"/>
			<line class="st0" x1="527.4" y1="317.5" x2="432.3" y2="55.6"/>
			<line class="st0" x1="520.2" y1="317.5" x2="425" y2="55.6"/>
		</g>
		<g>
			<line class="st0" x1="687" y1="617.9" x2="594.9" y2="363.7"/>
			<line class="st0" x1="679.8" y1="617.9" x2="587.7" y2="363.7"/>
			<line class="st0" x1="672.6" y1="617.9" x2="580.5" y2="363.7"/>
			<line class="st0" x1="665.4" y1="617.9" x2="573.3" y2="363.7"/>
			<line class="st0" x1="658.2" y1="617.9" x2="566.1" y2="363.7"/>
			<line class="st0" x1="651.1" y1="617.9" x2="558.9" y2="363.7"/>
			<line class="st0" x1="643.9" y1="617.9" x2="551.7" y2="363.7"/>
			<line class="st0" x1="636.7" y1="617.9" x2="544.6" y2="363.7"/>
			<line class="st0" x1="629.5" y1="617.9" x2="537.4" y2="363.7"/>
		</g>
	</g>
	<g>
		<g>
			<g>
				<line class="st0" x1="498.4" y1="317.5" x2="403.3" y2="55.6"/>
				<line class="st0" x1="491.2" y1="317.5" x2="396" y2="55.6"/>
				<line class="st0" x1="483.9" y1="317.5" x2="388.8" y2="55.6"/>
				<line class="st0" x1="476.7" y1="317.5" x2="381.5" y2="55.6"/>
				<line class="st0" x1="469.4" y1="317.5" x2="374.3" y2="55.6"/>
			</g>
			<g>
				<line class="st0" x1="462.2" y1="317.5" x2="367" y2="55.6"/>
				<line class="st0" x1="454.9" y1="317.5" x2="359.8" y2="55.6"/>
				<line class="st0" x1="447.7" y1="317.5" x2="352.6" y2="55.6"/>
				<line class="st0" x1="440.5" y1="317.5" x2="345.3" y2="55.6"/>
			</g>
		</g>
		<g>
			<line class="st0" x1="607.9" y1="617.9" x2="515.8" y2="363.7"/>
			<line class="st0" x1="600.8" y1="617.9" x2="508.6" y2="363.7"/>
			<line class="st0" x1="593.6" y1="617.9" x2="501.4" y2="363.7"/>
			<line class="st0" x1="586.4" y1="617.9" x2="494.3" y2="363.7"/>
			<line class="st0" x1="579.2" y1="617.9" x2="487.1" y2="363.7"/>
			<line class="st0" x1="572" y1="617.9" x2="479.9" y2="363.7"/>
			<line class="st0" x1="564.8" y1="617.9" x2="472.7" y2="363.7"/>
			<line class="st0" x1="557.6" y1="617.9" x2="465.5" y2="363.7"/>
			<line class="st0" x1="550.5" y1="617.9" x2="458.3" y2="363.7"/>
		</g>
	</g>
	<line class="st0" x1="235.7" y1="329.8" x2="235.7" y2="329.9"/>
	<line class="st0" x1="213.4" y1="331" x2="213.3" y2="331.1"/>
	<g>
		<line class="st0" x1="747.5" y1="651.2" x2="479.5" y2="651.2"/>
		<line class="st0" x1="169.5" y1="651.2" x2="40.5" y2="651.2"/>
		<polyline class="st0" points="622.3,617.9 530.2,363.7 527.8,357.2 527.9,357.2 599.2,357.2 696.8,624.2 694.8,624.2 545.9,624.2 
			448.8,357.2 449.1,357.2 520.2,357.2 520.6,357.2 523,363.7 615.1,617.9 		"/>
		<path class="st0" d="M479.5,631.2H492h27.3l-1.4-4.1l-99.5-273.9l-0.9-3H322h-6.6c50.4,29,83,81.7,85,143.2c0,0,0,0.1,0,0.1
			c0,0.5,0.2,1.1,0.2,1.6c0,91.3-74.2,164.9-165.4,164.9c-34.9,0-67.2-10.8-93.9-29.3c-6-4.1-11.6-8.6-17-13.5
			c-5.6-5.1-10.8-10.5-15.7-16.3c-24.2-28.7-38.8-65.8-38.8-106.3c0-0.6,0-1.1,0-1.7C70.6,409.9,133,341.6,213.4,331
			c0,0,0.1,0,0.1,0c5.9-0.6,14.3-1,22.3-1.1c2.7-0.1,5.4-0.2,7.8-0.2l166.1,0.5h0.2h1.1l-1.4-3.8L325.3,99.5l-87.9,226.6"/>
		<polyline class="st0" points="325.7,42.8 402.7,252.7 406.5,262.8 406.5,262.8 431.5,330.2 431.7,330.2 510,330.2 510.5,330.2 
			513.9,338.9 518.2,350.2 517.7,350.2 439.4,350.2 439,350.2 541.2,631.2 698.7,631.2 739.5,631.2 		"/>
		<polyline class="st0" points="40.5,631.2 51.7,631.2 97,631.2 106.9,606.1 		"/>
		<polyline class="st0" points="133.5,631.2 119.1,631.2 122.5,622.3 		"/>
		<polyline class="st0" points="482.5,48.2 481.8,48.2 487.7,48.2 488.8,51.6 488.9,51.9 588.3,324.2 587,324.2 516.4,324.2 
			515.3,324.2 512.9,317.6 418.1,55.8 		"/>
		<polyline class="st0" points="410.3,55.7 505.5,317.7 508.1,324.2 507.4,324.2 435.3,324.2 410.6,253.7 410.3,253.3 406.5,243.1 
			406.5,243.1 406.6,243 334.9,48.2 481.7,48.2 481.8,48.2 482.5,48.2 		"/>
		<g>
			<polyline class="st0" points="214.9,326.6 325.9,41.2 331.1,41.2 492.7,41.4 495.2,47.9 596.2,323.8 598.5,330.2 596,330.2 
				590.8,330.2 590.7,330.2 519,330.2 517.7,330.2 521.1,338.9 525.4,350.2 526.7,350.2 597.3,350.2 603.3,350.2 603.4,350.2 
				605.3,350.4 704.5,624.2 726.9,624.2 737.5,624.2 			"/>
		</g>
	</g>
	<g>
		<path d="M235.3,496.2c0.1,0,0.3,0.1,0.3,0.3c0,0.1-0.1,0.3-0.3,0.3s-0.3-0.1-0.3-0.3C235,496.3,235.1,496.2,235.3,496.2
			 M235.3,482.2c-7.9,0-14.3,6.4-14.3,14.3c0,7.9,6.4,14.3,14.3,14.3c7.9,0,14.3-6.4,14.3-14.3C249.5,488.6,243.1,482.2,235.3,482.2
			L235.3,482.2z"/>
	</g>
	<g>
		<g>
			<g>
				<path class="st0" d="M626.4,303.2c1,0,1.9,0.1,2.8,0.6c3.8,1.8,6.5,7,6.5,11.1c0,4.2-2.5,8.5-6.1,10.5c-1.3,0.7-2.7,1.1-4.2,1.1
					c-6.3,0-11.5-5.2-11.5-11.5c0-7,5.7-12.8,12.8-12.8c7.8,0,14.2,6.3,14.2,14.2c0,8.7-7.1,15.8-15.8,15.8
					c-9.7,0-17.5-7.8-17.5-17.5c0-10.7,8.7-19.4,19.4-19.4c11.9,0,21.6,9.9,21.6,21.8c0,13.3-10.8,24.2-24.1,24.2h-97.1"/>
				<path class="st0" d="M235.1,491l-0.1,0.1c-4.2,0-10.2,3.5-10.2,7.7c0,4.2,6,8.9,10.2,8.9l0.1,0c6.3,0,12.7-6.4,12.7-12.7
					c0-6.3-6.4-12.7-12.7-12.7l-0.1,0c-8.4,0-15.4,8.1-15.4,16.5c0,8.4,7,15.3,15.4,15.3l0.1,0c10.5,0,19.1-8.5,19.1-19.1
					c0-10.5-8.5-19.1-19.1-19.1l-0.1,0c-12.7,0-22.9,10.2-22.9,22.9c0,12.7,10.2,22.9,22.9,22.9l0.1,0c14.7,0,26.7-12,26.7-26.7
					c0-14.7-12-26.7-26.7-26.7l-0.1,0c-16.9,0-30.5,13.7-30.5,30.5c0,16.9,13.7,30.5,30.5,30.5l0.1,0c18.9,0,34.3-15.4,34.3-34.3
					c0-18.9-15.4-34.3-34.3-34.3l-0.1,0c-21.1,0-38.1,17.1-38.1,38.1c0,21.1,17.1,38.1,38.1,38.1l0.1-0.1
					c23.2,0,41.9-18.7,41.9-41.9c0-23.2-18.7-41.9-41.9-41.9l-0.1,0c-25.3,0-45.7,20.4-45.7,45.7c0,25.3,20.5,45.7,45.7,45.7l0.1,0
					c27.4,0,49.5-22.1,49.5-49.5c0-27.4-22.1-49.5-49.5-49.5l-0.1,0c-29.5,0-53.3,23.8-53.3,53.3c0,29.5,23.8,53.3,53.3,53.3l0.1,0
					c31.6,0,57.1-25.6,57.1-57.1c0-31.6-25.6-57.1-57.1-57.1l-0.1,0c-33.7,0-61,27.2-61,61c0,33.7,27.2,60.9,61,60.9l0.1,0
					c35.8,0,64.8-29,64.8-64.8c0-35.8-29-64.8-64.8-64.8l-0.1,0c-37.9,0-68.6,30.7-68.6,68.6c0,37.9,30.7,68.6,68.6,68.6l0.1,0
					c40,0,72.4-32.3,72.4-72.4c0-40.1-32.3-72.4-72.4-72.4l-0.1,0c-42.1,0-76.2,34.1-76.2,76.2c0,42.1,34.1,76.2,76.2,76.2l0.1,0
					c44.2,0,80-35.8,80-80c0-44.3-35.8-80-80-80l-0.1,0c-46.3,0-83.8,37.5-83.8,83.8c0,46.3,37.5,83.8,83.8,83.8l0.1,0
					c48.4,0,87.6-39.2,87.6-87.6c0-48.4-39.2-87.7-87.6-87.7l-0.1,0c-50.6,0-91.5,40.9-91.5,91.5c0,50.6,40.9,91.5,91.5,91.5l0.1,0
					c52.6,0,95.3-42.6,95.3-95.3s-42.6-95.3-95.3-95.3l-0.1,0c-54.8,0-99.1,44.3-99.1,99.1c0,54.8,44.3,99.1,99.1,99.1l0.1,0
					C292,598,338,551.9,338,495.1c0-56.8-46.1-102.9-102.9-102.9l-0.1,0c-59,0-106.7,47.8-106.7,106.7c0,59,47.8,106.7,106.7,106.7
					l0.1,0c61.1,0,110.5-49.4,110.5-110.5c0-61.1-49.4-110.5-110.5-110.5l-0.1,0c-63.2,0-114.4,51.2-114.4,114.3
					c0,63.2,51.2,114.4,114.4,114.4l0.1-0.1c65.3,0,118.1-52.8,118.1-118.1c0-65.3-52.8-118.1-118.1-118.1l-0.1,0
					c-67.4,0-121.9,54.5-121.9,121.9S167.6,620.7,235,620.7l0.1,0c69.5,0,125.7-56.2,125.7-125.7c0-69.5-56.2-125.7-125.7-125.7
					l-0.1,0c-71.6,0-129.5,57.9-129.5,129.5c0,71.6,57.9,129.5,129.5,129.5l0.1,0c73.7,0,133.3-59.7,133.3-133.3
					s-59.7-133.3-133.3-133.3l-0.1,0c-75.8,0-137.2,61.3-137.2,137.2C97.8,574.7,159.2,636,235,636l0.1,0c78,0,141-63,141-141
					c0-78-63-141-141-141l-0.1,0c-80,0-144.8,64.8-144.8,144.8c0,80,64.8,144.8,144.8,144.8l0.1,0c82.2,0,148.6-66.4,148.6-148.6
					c0-82.2-66.4-148.6-148.6-148.6l-0.1,0c-84.2,0-152.4,68.2-152.4,152.4c0,84.2,68.2,152.4,152.4,152.4l0.1,0
					c86.4,0,156.2-69.7,156.2-156c0-76.5-53.1-140.1-126-154.1h242.1"/>
				<g>
					<path d="M626.5,303.1c-6.7,0-12.1,5.4-12.1,12.1c0,6.7,5.4,12.1,12.1,12.1c6.7,0,12.1-5.4,12.1-12.1
						C638.6,308.5,633.2,303.1,626.5,303.1L626.5,303.1z"/>
				</g>
			</g>
			<polyline class="st0" points="226.3,326.2 325.6,70.5 423.8,339.3 534,641 			"/>
		</g>
		<line class="st0" x1="105.3" y1="639.6" x2="114.5" y2="614.2"/>
		<polyline class="st0" points="479.5,641.2 534.4,641.2 744.5,641.2 		"/>
		<polyline class="st0" points="148.8,641.5 104.2,641.2 51.7,641.2 40.5,641.2 		"/>
	</g>
</g>
</svg>
