<?xml version="1.0" encoding="utf-8"?>
<!-- Generator: Adobe Illustrator 19.0.0, SVG Export Plug-In . SVG Version: 6.00 Build 0)  -->
<svg version="1.1" xmlns="http://www.w3.org/2000/svg" xmlns:xlink="http://www.w3.org/1999/xlink" x="0px" y="0px"
	 viewBox="0 0 2236.6 10400" style="enable-background:new 0 0 2236.6 10400;" xml:space="preserve">
<style type="text/css">
	.st0{display:none;}
	.st1{display:inline;fill:#D88394;}
	.st2{fill:none;stroke:#FFFFFF;stroke-width:4;stroke-linecap:round;stroke-miterlimit:10;}
</style>
<g id="Layer_2" class="st0">
	<rect id="XMLID_107_" class="st1" width="2236.6" height="10457.1"/>
</g>
<g id="Layer_1">
	<g id="XMLID_1_">
		<path id="XMLID_97_" class="st2" d="M326.9,2493.1c0,0,108.3,1313.9,108.3,2166.4S76.5,6073.7,76.5,6545.1
			c0,471.4,282.6,806.1,282.6,1127.1c0,347.3-282.6,487.7-282.6,808.6c0,300.2,262.6,323.6,262.6,599.3
			c0,226.8-262.6,258.6-262.6,437.9c0,158.6,248.7,198.3,247.4,324.7c-1.2,116-247.4,181.2-247.4,300.9
			c0,89.8,239.7,104.3,239.7,193.4"/>
		<path id="XMLID_96_" class="st2" d="M380,2493.6c0,0,100.5,1301.2,96.7,2155.2c-2.4,844.9-353.1,1407.5-353.1,1877.1
			c0,467.3,277.3,809.2,278.9,1133.5c0.7,159.9-56.6,276.7-118.5,386c-74.5,131.6-158.1,253.4-160.4,427.1
			c-1.4,119.6,38.5,196.1,87.6,263.1c73.5,100.8,168.5,175.4,170.7,339.1c1,73.1-25.2,126.5-61.5,172
			c-75.6,93.4-196.2,147.6-198.3,268.4c-0.6,39.3,13.9,71.6,36.3,100c67.8,85.5,209.3,131.1,209.7,226.5c0,16.1-4.6,31.2-12.6,45.8
			c-49.9,91.2-234.5,153.2-234.5,257c0,89.8,239.7,104.3,239.7,193.1"/>
		<path id="XMLID_95_" class="st2" d="M434,2494c0,0,91.7,1288.5,84.2,2144c-4.8,837.2-347.4,1400.8-347.4,1868.7
			c0,463.2,272,812.2,275.1,1139.9c1.4,161.1-54.1,279.2-113.9,388.6c-72.9,133.4-156.6,256-161.2,429
			c-2.8,118.9,34.8,196,82.5,264.6c71.4,103.8,167.2,178.3,171.5,340.7c2,72.5-22.7,126.2-58,172.9c-73.4,94.7-195,149.3-199,269.8
			c-1.3,39.2,12.4,71.6,34.2,100.5c65.9,86.8,208.7,131.8,210.5,227.7c0.2,16.1-4.2,31.3-11.9,46.1
			c-48.7,92.8-234.9,154.2-234.9,258.5c0,89.8,239.7,104.3,239.7,192.8"/>
		<path id="XMLID_14_" class="st2" d="M486.7,2493.1c8,126.2,81.8,1323.2,73,2134.1c-9,829.6-341.8,1394.2-341.8,1860.2
			c0,459.2,266.6,815.2,271.3,1146.3c2.1,162.2-51.6,281.7-109.2,391.1c-71.3,135.3-155.2,258.5-162.1,431
			c-4.2,118.1,31,195.9,77.4,266.1c69.3,106.8,165.9,181.2,172.4,342.2c3,72-20.2,125.9-54.5,173.9
			c-71.3,96-193.7,151.1-199.7,271.2c-1.9,39,10.9,71.7,32.1,101.1c63.9,88,208.3,132.5,211.2,228.9c0.5,16.1-3.7,31.4-11.2,46.4
			c-47.4,94.4-235.3,155.1-235.3,260.1c0,89.8,239.7,104.3,239.7,192.5"/>
		<path id="XMLID_13_" class="st2" d="M539.3,2493.6c14.3,256.8,72.9,1367.9,61.9,2122.9c-11.9,821.9-336.2,1387.5-336.2,1851.7
			c0,455.1,261.3,818.2,267.6,1152.7c2.8,163.4-49.1,284.2-104.6,393.6c-69.6,137.2-153.8,261.1-163,432.9
			c-5.6,117.4,27.3,195.8,72.3,267.5c67.2,109.8,164.6,184.1,173.2,343.8c4,71.4-17.7,125.6-50.9,174.9
			c-69.1,97.4-192.4,152.8-200.5,272.6c-2.6,38.9,9.4,71.7,30,101.7c62,89.3,207.8,133.2,212,230.1c0.7,16.1-3.3,31.5-10.5,46.6
			c-46.1,96-235.6,156-235.6,261.7c0,89.8,239.7,104.3,239.7,192.2"/>
		<path id="XMLID_9_" class="st2" d="M591.8,2493.1c17.9,373,63.6,1416.7,51,2112.6C628,5419.9,312.2,5986.5,312.2,6449
			c0,451,256,821.2,263.8,1159.2c3.6,164.5-46.5,286.8-99.9,396.1c-67.9,139.1-152.4,263.7-163.9,434.8
			c-7.1,116.6,23.6,195.6,67.1,269c65.1,112.7,163.3,187,174.1,345.3c5,70.9-15.2,125.3-47.4,175.9
			c-67,98.7-191.1,154.6-201.2,274.1c-3.2,38.8,7.9,71.8,27.8,102.2c60.1,90.5,207.2,134,212.7,231.4c0.9,16.1-2.8,31.6-9.9,46.9
			c-44.7,97.7-236,157-236,263.2c0,89.7,239.7,104.2,239.7,191.9"/>
		<path id="XMLID_91_" class="st2" d="M646.4,2482.2c0,0,56.7,1251.3,37.9,2112.7c-17.6,806.5-324.9,1374.1-324.9,1834.8
			c0,446.9,250.6,824.2,260.1,1165.6c4.3,165.7-44,289.4-95.3,398.6c-66.2,141-151,266.2-164.8,436.8
			c-8.5,115.9,19.9,195.5,62,270.4c63,115.7,162,190,174.9,346.9c6,70.3-12.7,125-43.8,176.9c-64.8,100.1-189.8,156.4-202,275.5
			c-3.8,38.6,6.4,71.8,25.7,102.8c58.1,91.8,206.7,134.7,213.5,232.6c1.1,16.1-2.4,31.7-9.2,47.2
			c-43.4,99.3-236.4,157.9-236.4,264.8c0,89.7,239.7,104.2,239.7,191.6"/>
		<path id="XMLID_90_" class="st2" d="M699.3,2467.3c0,0,48.5,1253.9,26.5,2116.9C705.4,5383,406.5,5951.6,406.5,6410.5
			c0,442.9,245.3,827.2,256.3,1172c5,166.9-41.4,292-90.6,401.1c-64.5,142.9-149.6,268.8-165.7,438.7
			c-9.9,115.1,16.1,195.4,56.9,271.9c60.9,118.7,160.6,192.9,175.7,348.4c7,69.8-10.2,124.7-40.3,177.8
			c-62.6,101.4-188.6,158.1-202.7,276.9c-4.5,38.5,5,71.9,23.6,103.4c56.2,93,206.1,135.4,214.3,233.8c1.3,16.1-2,31.8-8.5,47.5
			c-42,101-236.7,158.9-236.7,266.4c0,89.7,239.7,104.2,239.7,191.3"/>
		<path id="XMLID_89_" class="st2" d="M751.1,2453.6c0,0,41.5,1255.4,16.2,2119.8c-23.2,791.2-313.6,1360.8-313.6,1817.9
			c0,438.8,240,830.2,252.6,1178.4c5.7,168-38.8,294.6-86,403.6c-62.8,144.9-148.2,271.3-166.6,440.7
			c-11.3,114.4,12.4,195.3,51.8,273.4c58.8,121.7,159.3,195.8,176.6,349.9c8,69.2-7.7,124.5-36.8,178.8
			C584.8,9318.8,458,9376,441.8,9494.4c-5.1,38.4,3.5,71.9,21.4,103.9c54.3,94.3,205.6,136.1,215,235c1.5,16.1-1.5,31.9-7.8,47.8
			c-40.7,102.6-237.1,159.8-237.1,267.9c0,89.7,239.7,104.2,239.7,191"/>
		<path id="XMLID_88_" class="st2" d="M801.1,2414.4c0,0,36.3,1282.3,7.7,2148.3c-25.9,783.5-308,1354.1-308,1809.4
			c0,434.7,234.7,833.2,248.8,1184.8c6.4,169.2-36.1,297.3-81.3,406.1c-61,146.9-146.8,273.9-167.4,442.6
			c-12.7,113.6,8.7,195.2,46.6,274.8c56.7,124.7,158,198.7,177.4,351.5c9,68.6-5.2,124.2-33.2,179.8
			c-58.3,104.1-186,161.6-204.2,279.8c-5.8,38.2,2,72,19.3,104.5c52.3,95.5,205,136.8,215.8,236.2c1.7,16.2-1.1,32-7.2,48.1
			c-39.3,104.3-237.5,160.7-237.5,269.5c0,89.7,239.7,104.2,239.7,190.7"/>
		<path id="XMLID_87_" class="st2" d="M852.6,2379.1c0,0,29.6,1305.3-2.3,2172.8C821.7,5327.7,548,5899.3,548,6352.8
			c0,430.6,229.3,836.2,245,1191.2c7.1,170.3-33.4,299.9-76.7,408.6C657.1,8101.6,571,8229.2,548,8397.3
			c-14.1,112.9,5,195.1,41.5,276.3c54.6,127.6,156.7,201.6,178.3,353c10,68.1-2.7,123.9-29.7,180.8
			c-56.2,105.4-184.7,163.4-205,281.2c-6.4,38.1,0.5,72,17.2,105c50.4,96.7,204.5,137.5,216.5,237.4c2,16.2-0.7,32.1-6.5,48.3
			c-38,105.9-237.8,161.7-237.8,271.1c0,89.7,239.7,104.1,239.7,190.4"/>
		<path id="XMLID_86_" class="st2" d="M905.2,2316c0,0,21.9,1356.1-13.4,2225.1c-31.2,768.2-296.7,1340.7-296.7,1792.5
			c0,426.5,224,839.2,241.3,1197.6c7.8,171.5-30.7,302.6-72,411.2c-57.4,151-143.9,279-169.2,446.5c-15.5,112.1,1.3,195,36.4,277.7
			c52.5,130.6,155.4,204.5,179.1,354.6c11,67.5-0.2,123.6-26.2,181.7c-54,106.8-183.5,165.1-205.7,282.6c-7,38-1,72.1,15,105.6
			c48.4,98,203.9,138.3,217.3,238.6c2.2,16.2-0.2,32.2-5.8,48.6c-36.6,107.6-238.2,162.6-238.2,272.6
			c0,89.7,239.7,104.1,239.7,190.1"/>
		<path id="XMLID_85_" class="st2" d="M963.9,2161.1c0,0,8.1,1498.7-30.6,2369.2c-33.8,760.5-291,1334-291,1784
			c0,422.5,218.7,842.2,237.5,1204c8.5,172.7-28,305.3-67.4,413.7c-55.6,153-142.5,281.6-170.1,448.5
			c-16.9,111.4-2.5,194.8,31.2,279.2c50.4,133.6,154.1,207.5,180,356.1c12,67,2.3,123.3-22.6,182.7
			c-51.8,108.1-182.2,166.9-206.5,284.1c-7.7,37.8-2.5,72.1,12.9,106.2c46.5,99.2,203.3,139,218.1,239.9c2.4,16.2,0.2,32.3-5.1,48.9
			c-35.2,109.3-238.6,163.5-238.6,274.2c0,89.7,239.7,104.1,239.7,189.8"/>
		<path id="XMLID_8_" class="st2" d="M1023.6,2034.3c-0.1,121.8-7.1,1665.9-46.8,2487.3c-36.4,752.8-285.4,1327.4-285.4,1775.6
			c0,418.4,213.3,845.2,233.8,1210.5c9.2,173.8-25.3,308-62.7,416.2c-53.7,155.1-141.1,284.1-171,450.4
			c-18.3,110.7-6.2,194.7,26.1,280.7c48.3,136.6,152.8,210.4,180.8,357.7c13,66.4,4.8,123-19.1,183.7
			c-49.7,109.4-180.9,168.6-207.2,285.5c-8.3,37.7-4,72.2,10.8,106.7c44.6,100.5,202.7,139.7,218.8,241.1
			c2.6,16.2,0.7,32.4-4.4,49.2c-33.8,110.9-239,164.5-239,275.8c0,89.7,239.7,104.1,239.7,189.5"/>
		<path id="XMLID_7_" class="st2" d="M1083.6,1649.6c-1.4,174.5-25.6,2061.4-67.2,2859.2c-38.9,745.1-279.8,1320.7-279.8,1767.1
			c0,414.3,208,848.2,230,1216.9c9.9,175-22.5,310.7-58.1,418.7c-51.8,157.2-139.7,286.7-171.9,452.4
			c-19.8,109.9-9.9,194.6,21,282.1c46.2,139.6,151.5,213.3,181.7,359.2c14,65.8,7.3,122.7-15.5,184.7
			c-47.5,110.8-179.6,170.4-207.9,286.9c-9,37.6-5.5,72.2,8.6,107.3c42.6,101.7,202.1,140.4,219.6,242.3c2.8,16.2,1.1,32.5-3.8,49.5
			c-32.4,112.6-239.3,165.4-239.3,277.4c0,89.6,239.7,104,239.7,189.1"/>
		<path id="XMLID_6_" class="st2" d="M1130.2,2188.9c-5,289.3-31,1571.9-72.4,2309.1c-41.4,737.4-274.1,1314-274.1,1758.7
			c0,410.2,202.7,851.2,226.2,1223.3c10.7,176.2-19.7,313.4-53.5,421.2c-49.9,159.3-138.3,289.2-172.7,454.3
			c-21.2,109.2-13.6,194.5,15.9,283.6c44.1,142.5,150.2,216.2,182.5,360.7c15,65.3,9.8,122.5-12,185.6
			c-45.4,112.1-178.3,172.1-208.7,288.3c-9.6,37.4-7,72.3,6.5,107.8c40.7,103,201.5,141.1,220.3,243.5c3,16.2,1.6,32.7-3.1,49.8
			c-31,114.3-239.7,166.4-239.7,278.9c0,89.6,239.7,104,239.7,188.8"/>
		<path id="XMLID_5_" class="st2" d="M1180,2303.6c-10.8,436.6-41.8,1539-80.6,2183.7c-43.9,729.7-268.5,1307.3-268.5,1750.2
			c0,406.2,197.4,854.2,222.5,1229.7c11.4,177.3-16.9,316.2-48.8,423.7c-47.9,161.4-136.9,291.8-173.6,456.3
			c-22.6,108.4-17.4,194.4,10.7,285c42,145.5,148.8,219.1,183.4,362.3c16,64.7,12.3,122.2-8.5,186.6
			c-43.2,113.5-177.1,173.9-209.4,289.8c-10.2,37.3-8.4,72.3,4.4,108.4c38.8,104.2,200.9,141.8,221.1,244.7c3.2,16.2,2,32.8-2.4,50
			c-29.6,116-240.1,167.3-240.1,280.5c0,89.6,239.7,104,239.7,188.5"/>
		<path id="XMLID_4_" class="st2" d="M1234.7,2371.9c-22.8,627-61.4,1598.3-93.9,2104.6c-46.3,722.1-262.8,1300.6-262.8,1741.7
			c0,402.1,192,857.3,218.7,1236.1c12.1,178.5-14,318.9-44.2,426.2c-45.9,163.5-135.5,294.4-174.5,458.2
			c-24,107.7-21.1,194.3,5.6,286.5c39.9,148.5,147.5,222.1,184.2,363.8c17,64.2,14.8,121.9-4.9,187.6
			c-41,114.8-175.8,175.6-210.2,291.2c-10.9,37.2-9.9,72.4,2.3,109c36.8,105.5,200.3,142.6,221.8,245.9c3.4,16.3,2.5,32.9-1.7,50.3
			c-28.2,117.6-240.4,168.2-240.4,282.1c0,89.6,239.7,104,239.7,188.2"/>
		<path id="XMLID_3_" class="st2" d="M1282.1,2429.3c-11.9,313.7-50.6,1315.4-99.7,2036.4c-48.7,714.4-257.2,1294-257.2,1733.3
			c0,398,186.7,860.3,215,1242.5c12.8,179.6-11.2,321.7-39.5,428.7c-43.9,165.7-134.1,296.9-175.4,460.1
			c-25.4,106.9-24.8,194.2,0.5,288c37.8,151.5,146.2,225,185.1,365.4c18,63.6,17.3,121.6-1.4,188.6
			c-38.9,116.1-174.5,177.4-210.9,292.6c-11.5,37-11.4,72.4,0.1,109.5c34.9,106.7,199.7,143.3,222.6,247.1c3.6,16.3,2.9,33-1,50.6
			c-26.8,119.3-240.8,169.2-240.8,283.6c0,89.6,239.7,104,239.7,187.9"/>
		<path id="XMLID_2_" class="st2" d="M1336.7,2468.1c-10.2,226.4-57,1215-112.8,1986.9c-51,706.7-251.6,1287.3-251.6,1724.8
			c0,393.9,181.4,863.3,211.2,1248.9c13.5,180.8-8.3,324.4-34.9,431.3c-41.8,167.8-132.6,299.5-176.3,462.1
			c-26.8,106.2-28.5,194.1-4.6,289.4c35.7,154.5,144.9,227.9,185.9,366.9c19,63.1,19.8,121.3,2.2,189.5
			c-36.7,117.5-173.2,179.2-211.7,294c-12.2,36.9-12.9,72.5-2,110.1c32.9,108,199.1,144,223.4,248.4c3.8,16.3,3.4,33.1-0.4,50.9
			c-25.3,121-241.2,170.1-241.2,285.2c0,89.6,239.7,103.9,239.7,187.6"/>
		<path id="XMLID_77_" class="st2" d="M1388.4,2486.8c0,0-55.6,1074.9-122.9,1957.4c-53.3,699-245.9,1280.6-245.9,1716.3
			c0,389.9,176,866.3,207.4,1255.3c14.2,182-5.4,327.2-30.2,433.8c-39.7,170-131.2,302-177.2,464c-28.2,105.4-32.2,193.9-9.8,290.9
			c33.6,157.4,143.6,230.8,186.7,368.5c20,62.5,22.3,121,5.7,190.5c-34.6,118.8-171.9,180.9-212.4,295.5
			c-12.8,36.8-14.4,72.5-4.1,110.6c31,109.2,198.5,144.7,224.1,249.6c4,16.3,3.8,33.2,0.3,51.2c-23.9,122.7-241.5,171-241.5,286.8
			c0,89.6,239.7,103.9,239.7,187.3"/>
		<path id="XMLID_76_" class="st2" d="M1440.9,2502.6c0,0-62.8,1046.8-133.9,1930.9c-55.6,691.4-240.3,1273.9-240.3,1707.9
			c0,385.8,170.7,869.3,203.7,1261.7c14.9,183.1-2.4,330-25.6,436.3c-37.5,172.1-129.8,304.6-178.1,466
			c-29.6,104.7-36,193.8-14.9,292.4c31.5,160.4,142.3,233.7,187.6,370c21,61.9,24.8,120.7,9.2,191.5
			c-32.4,120.2-170.7,182.7-213.2,296.9c-13.5,36.6-15.9,72.6-6.3,111.2c29.1,110.5,197.9,145.4,224.9,250.8
			c4.2,16.3,4.3,33.3,1,51.5c-22.5,124.4-241.9,172-241.9,288.3c0,89.6,239.7,103.9,239.7,187"/>
		<path id="XMLID_75_" class="st2" d="M1493.9,2503c0,0-70.5,1034.1-145.5,1919.6c-57.9,683.7-234.6,1267.2-234.6,1699.4
			c0,381.7,165.4,872.3,199.9,1268.2c15.6,184.3,0.6,332.7-20.9,438.8c-35.3,174.3-128.4,307.2-178.9,467.9
			c-31,103.9-39.7,193.7-20,293.8c29.4,163.4,141,236.6,188.4,371.5c22,61.4,27.3,120.5,12.8,192.5
			c-30.2,121.5-169.4,184.4-213.9,298.3c-14.1,36.5-17.4,72.6-8.4,111.8c27.1,111.7,197.2,146.2,225.6,252
			c4.4,16.3,4.7,33.4,1.7,51.7c-21,126.1-242.3,172.9-242.3,289.9c0,89.6,239.7,103.9,239.7,186.7"/>
		<path id="XMLID_74_" class="st2" d="M1547,2503.5c0,0-78.2,1021.4-157,1908.4c-60.1,676-229,1260.5-229,1691
			c0,377.6,160.1,875.3,196.2,1274.6c16.3,185.5,3.5,335.5-16.3,441.3c-33.1,176.5-127,309.7-179.8,469.9
			c-32.5,103.2-43.4,193.6-25.2,295.3c27.3,166.4,139.7,239.6,189.3,373.1c23,60.8,29.8,120.2,16.3,193.4
			c-28.1,122.8-168.1,186.2-214.7,299.8c-14.7,36.4-18.9,72.7-10.5,112.3c25.2,113,196.6,146.9,226.4,253.2
			c4.6,16.3,5.2,33.5,2.3,52c-19.5,127.7-242.6,173.8-242.6,291.5c0,89.6,239.7,103.9,239.7,186.4"/>
		<path id="XMLID_73_" class="st2" d="M1600,2503.9c0,0-85.8,1008.7-168.5,1897.2c-62.2,668.4-223.4,1253.9-223.4,1682.5
			c0,373.5,154.7,878.3,192.4,1281c17,186.6,6.6,338.3-11.6,443.8c-30.8,178.7-125.6,312.3-180.7,471.8
			c-33.9,102.4-47.1,193.5-30.3,296.7c25.2,169.4,138.4,242.5,190.1,374.6c24,60.3,32.3,119.9,19.8,194.4
			c-25.9,124.2-166.8,187.9-215.4,301.2c-15.4,36.2-20.4,72.7-12.7,112.9c23.3,114.2,196,147.6,227.2,254.4
			c4.8,16.3,5.6,33.6,3,52.3c-18.1,129.4-243,174.8-243,293.1c0,89.5,239.7,103.8,239.7,186.1"/>
		<path id="XMLID_72_" class="st2" d="M1653.1,2504.4c0,0-93.4,996-180.1,1886c-64.4,660.7-217.7,1247.2-217.7,1674
			c0,369.5,149.4,881.3,188.7,1287.4c17.8,187.8,9.6,341.1-7,446.3c-28.5,180.8-124.2,314.8-181.6,473.8
			c-35.3,101.7-50.9,193.4-35.4,298.2c23.1,172.4,137,245.4,191,376.2c25,59.7,34.8,119.6,23.4,195.4
			c-23.8,125.5-165.6,189.7-216.1,302.6c-16,36.1-21.9,72.8-14.8,113.4c21.3,115.4,195.3,148.3,227.9,255.6
			c5,16.4,6.1,33.7,3.7,52.6c-16.6,131.1-243.4,175.7-243.4,294.6c0,89.5,239.7,103.8,239.7,185.8"/>
		<path id="XMLID_71_" class="st2" d="M1706.1,2504.8c0,0-100.9,983.3-191.6,1874.8c-66.5,653.1-212.1,1240.5-212.1,1665.6
			c0,365.4,144.1,884.3,184.9,1293.8c18.5,188.9,12.6,343.8-2.3,448.8c-26.1,183-122.8,317.4-182.5,475.7
			c-36.7,101-54.6,193.3-40.5,299.7c21,175.3,135.7,248.3,191.8,377.7c26,59.2,37.3,119.3,26.9,196.4
			c-21.6,126.9-164.3,191.4-216.9,304c-16.7,36-23.3,72.8-16.9,114c19.4,116.7,194.7,149.1,228.7,256.8c5.2,16.4,6.5,33.8,4.4,52.9
			c-15.1,132.8-243.7,176.7-243.7,296.2c0,89.5,239.7,103.8,239.7,185.5"/>
		<path id="XMLID_70_" class="st2" d="M1759.2,2505.3c0,0-108.3,970.6-203.1,1863.5c-68.5,645.4-206.4,1233.8-206.4,1657.1
			c0,361.3,138.7,887.3,181.1,1300.2c19.2,190.1,15.7,346.6,2.3,451.3c-23.7,185.2-121.3,320-183.4,477.7
			c-38.1,100.2-58.3,193.1-45.7,301.1c18.9,178.3,134.4,251.2,192.7,379.3c27,58.6,39.8,119,30.5,197.3
			c-19.4,128.2-163,193.2-217.6,305.5c-17.3,35.8-24.8,72.9-19.1,114.6c17.4,117.9,194,149.8,229.4,258.1c5.4,16.4,7,34,5.1,53.2
			c-13.6,134.5-244.1,177.6-244.1,297.8c0,89.5,239.7,103.8,239.7,185.2"/>
		<path id="XMLID_69_" class="st2" d="M1812.2,2505.7c0,0-115.7,957.9-214.7,1852.3c-70.5,637.8-200.8,1227.1-200.8,1648.6
			c0,357.2,133.4,890.3,177.4,1306.6c19.9,191.3,18.8,349.4,6.9,453.9c-21.2,187.4-119.9,322.5-184.3,479.6
			c-39.5,99.5-62,193-50.8,302.6c16.8,181.3,133.1,254.2,193.5,380.8c28,58,42.3,118.7,34,198.3
			c-17.3,129.5-161.7,194.9-218.4,306.9c-17.9,35.7-26.3,72.9-21.2,115.1c15.5,119.2,193.4,150.6,230.2,259.3
			c5.6,16.4,7.5,34.1,5.7,53.4c-12.1,136.2-244.5,178.5-244.5,299.3c0,89.5,239.7,103.8,239.7,184.9"/>
		<path id="XMLID_68_" class="st2" d="M1865.2,2506.2c0,0-123.1,945.3-226.2,1841.1c-72.5,630.2-195.2,1220.5-195.2,1640.2
			c0,353.2,128.1,893.3,173.6,1313c20.6,192.4,21.9,352.1,11.6,456.4c-18.7,189.5-118.5,325.1-185.1,481.6
			c-40.9,98.7-65.8,192.9-55.9,304c14.7,184.3,131.8,257.1,194.4,382.3c29,57.5,44.8,118.4,37.5,199.3
			c-15.1,130.9-160.4,196.7-219.1,308.3c-18.6,35.5-27.8,73-23.3,115.7c13.6,120.4,192.7,151.3,231,260.5
			c5.7,16.4,7.9,34.2,6.4,53.7c-10.6,137.8-244.8,179.5-244.8,300.9c0,89.5,239.7,103.7,239.7,184.6"/>
		<path id="XMLID_67_" class="st2" d="M1918.3,2506.6c0,0-130.4,932.6-237.7,1829.9C1606,4959.1,1491,5550.3,1491,5968.2
			c0,349.1,122.7,896.3,169.9,1319.5c21.3,193.6,25,354.9,16.2,458.9c-16.2,191.7-117.1,327.6-186,483.5
			c-42.3,98-69.5,192.8-61,305.5c12.6,187.3,130.5,260,195.2,383.9c30,56.9,47.3,118.2,41.1,200.3
			c-13,132.2-159.2,198.4-219.9,309.8c-19.2,35.4-29.3,73-25.5,116.2c11.6,121.7,192.1,152,231.7,261.7c5.9,16.4,8.4,34.3,7.1,54
			c-9.1,139.5-245.2,180.4-245.2,302.5c0,89.5,239.7,103.7,239.7,184.3"/>
		<path id="XMLID_66_" class="st2" d="M1971.3,2507.1c0,0-137.6,920-249.3,1818.7c-76.4,614.9-183.9,1207.1-183.9,1623.3
			c0,345,117.4,899.3,166.1,1325.9c22,194.7,28.2,357.6,20.9,461.4c-13.6,193.8-115.7,330.2-186.9,485.4
			c-43.7,97.2-73.2,192.7-66.2,307c10.5,190.2,129.2,262.9,196.1,385.4c31,56.4,49.8,117.9,44.6,201.2
			c-10.8,133.6-157.9,200.2-220.6,311.2c-19.9,35.3-30.8,73-27.6,116.8c9.7,122.9,191.4,152.8,232.5,262.9
			c6.1,16.4,8.8,34.4,7.8,54.3c-7.6,141.2-245.6,181.3-245.6,304c0,89.5,239.7,103.7,239.7,184"/>
		<path id="XMLID_65_" class="st2" d="M2024.4,2507.5c0,0-144.7,907.4-260.8,1807.5c-78.3,607.3-178.2,1200.4-178.2,1614.8
			c0,340.9,112.1,902.4,162.3,1332.3c22.7,195.9,31.3,360.4,25.5,463.9c-11,196-114.3,332.7-187.8,487.4
			c-45.2,96.5-76.9,192.6-71.3,308.4c8.4,193.2,127.9,265.8,196.9,387c32,55.8,52.3,117.6,48.1,202.2
			c-8.6,134.9-156.6,202-221.4,312.6c-20.5,35.1-32.3,73.1-29.7,117.4c7.8,124.2,190.7,153.5,233.2,264.1
			c6.3,16.5,9.3,34.5,8.4,54.6c-6.1,142.9-245.9,182.3-245.9,305.6c0,89.5,239.7,103.7,239.7,183.6"/>
		<path id="XMLID_63_" class="st2" d="M2077.4,2508c0,0-151.8,894.8-272.3,1796.2c-80.2,599.7-172.6,1193.7-172.6,1606.3
			c0,336.8,106.8,905.4,158.6,1338.7c23.4,197.1,34.5,363.1,30.2,466.4c-8.3,198.1-112.9,335.3-188.7,489.3
			c-46.6,95.7-80.6,192.5-76.4,309.9c6.3,196.2,126.6,268.8,197.7,388.5c33,55.3,54.8,117.3,51.7,203.2
			c-6.5,136.2-155.3,203.7-222.1,314c-21.1,35-33.8,73.1-31.8,117.9c5.8,125.4,189.9,154.4,234,265.3c6.5,16.5,9.8,34.6,9.1,54.9
			c-4.6,144.5-246.3,183.2-246.3,307.2c0,89.4,239.7,103.7,239.7,183.3"/>
		<path id="XMLID_62_" class="st2" d="M2130.5,2508.4c0,0-158.8,882.2-283.9,1785c-82,592.1-167,1187.1-167,1597.9
			c0,332.8,101.4,908.4,154.8,1345.1c24.1,198.2,37.7,365.8,34.8,468.9c-5.6,200.2-111.5,337.9-189.6,491.3
			c-48,95-84.4,192.4-81.6,311.3c4.2,199.2,125.3,271.7,198.6,390.1c34,54.7,57.3,117,55.2,204.2
			c-4.3,137.6-154.1,205.5-222.9,315.5c-21.8,34.9-35.3,73.2-34,118.5c3.9,126.7,189.3,155.1,234.7,266.6
			c6.7,16.5,10.3,34.7,9.8,55.2c-2.9,146.2-246.7,184.2-246.7,308.7c0,89.4,239.7,103.6,239.7,183"/>
		<path id="XMLID_61_" class="st2" d="M2183.5,2508.9c0,0-164.8,869.7-295.4,1773.8c-83.2,584.7-161.3,1180.4-161.3,1589.4
			c0,328.7,96.1,911.4,151.1,1351.5c24.9,199.4,40.9,368.5,39.5,471.4c-2.8,202.3-110.1,340.4-190.4,493.2
			c-49.4,94.2-88.1,192.2-86.7,312.8c2.1,202.2,123.9,274.6,199.4,391.6c35,54.1,59.8,116.7,58.8,205.1
			c-2.2,138.9-152.8,207.2-223.6,316.9c-22.4,34.7-36.7,73.2-36.1,119c1.9,127.9,188.7,155.8,235.5,267.8
			c6.9,16.5,10.7,34.8,10.5,55.4c-1.4,147.9-247.1,185.1-247.1,310.3c0,89.4,239.7,103.6,239.7,182.7"/>
		<path id="XMLID_60_" class="st2" d="M2236.6,2509.3c0,0-462.6,2297.2-462.6,3343.5c0,471.4,191.4,1502,191.4,1831.9
			c0,329.9-283.1,488.5-283.1,809.4c0,300.2,262.6,316.1,262.6,599.3c0,184.7-262.6,245.3-262.6,437.9
			c0,148.2,247.4,162.4,247.4,324.7c0,149.5-247.4,186-247.4,311.9c0,89.4,239.7,103.6,239.7,182.4"/>
	</g>
</g>
</svg>
